<svg width="112" height="26" viewBox="0 0 112 26" fill="none" xmlns="http://www.w3.org/2000/svg">
<path fill-rule="evenodd" clip-rule="evenodd" d="M10.1402 8.51068C10.1402 9.40825 10.144 9.77109 10.1487 9.31705C10.1535 8.86282 10.1535 8.12845 10.1487 7.6851C10.144 7.24158 10.1402 7.61312 10.1402 8.51068ZM20.947 8.91867C20.947 8.94351 20.9586 8.9912 20.973 9.02438C20.9893 9.06246 20.999 9.06809 20.999 9.03962C20.999 9.01459 20.9873 8.96708 20.973 8.93372C20.9566 8.89564 20.947 8.89002 20.947 8.91867ZM21.0059 9.19066C21.0068 9.2155 21.0193 9.26319 21.0335 9.29637L21.0597 9.35694L21.0613 9.29637C21.0622 9.26319 21.0497 9.2155 21.0335 9.19066C21.0075 9.15041 21.0044 9.15041 21.0059 9.19066ZM17.8825 9.62313C17.8825 9.62838 17.9269 9.67263 17.981 9.72141L18.0794 9.81026L17.9905 9.71198C17.9076 9.62041 17.8825 9.59992 17.8825 9.62313ZM10.1375 10.6563C10.1375 10.8393 10.1425 10.9102 10.1485 10.8139C10.1545 10.7178 10.1545 10.5682 10.1484 10.4815C10.1422 10.3949 10.1373 10.4736 10.1375 10.6563ZM18.9336 10.5631C18.9805 10.6034 19.024 10.6308 19.0305 10.6244C19.0453 10.6097 18.9067 10.4926 18.8731 10.4911C18.8596 10.4906 18.8869 10.5231 18.9336 10.5631ZM19.0642 10.6507C19.0642 10.656 19.1085 10.7002 19.1627 10.749L19.261 10.8377L19.1721 10.7396C19.0892 10.648 19.0642 10.6273 19.0642 10.6507ZM21.3696 10.7597C21.368 10.7833 21.4 10.9329 21.4404 11.0921C21.4809 11.2514 21.5223 11.4206 21.5327 11.4683C21.5431 11.516 21.5585 11.5481 21.5671 11.5396C21.584 11.5227 21.4969 11.0728 21.4674 11.0255C21.4576 11.0096 21.4322 10.9336 21.4109 10.8567C21.3896 10.7798 21.3711 10.7361 21.3696 10.7597ZM19.4906 11.0523C19.531 11.0955 19.6186 11.1726 19.6853 11.2235C19.7595 11.2805 19.7361 11.2502 19.6246 11.145C19.4346 10.966 19.3647 10.9176 19.4906 11.0523ZM10.1389 11.6386C10.1389 11.9793 10.1433 12.1187 10.1487 11.9483C10.154 11.778 10.154 11.4991 10.1487 11.3289C10.1433 11.1584 10.1389 11.2979 10.1389 11.6386ZM19.9415 11.4346C20.0671 11.568 20.0944 11.592 20.0944 11.5693C20.0944 11.5644 20.0295 11.4999 19.9504 11.4257L19.8064 11.291L19.9415 11.4346ZM11.7698 11.5329C11.7701 11.5992 11.7763 11.623 11.7836 11.5853C11.7909 11.5477 11.7907 11.4933 11.783 11.4645C11.7754 11.4355 11.7696 11.4663 11.7698 11.5329ZM17.9583 11.5942C18.2606 11.8752 18.3428 11.945 18.3555 11.9323C18.3632 11.9249 18.2496 11.8203 18.1032 11.7C17.9569 11.5798 17.8916 11.5321 17.9583 11.5942ZM20.1271 11.5992C20.1307 11.6346 20.4609 11.9176 20.4781 11.9004C20.4861 11.8924 20.4289 11.8268 20.3507 11.7546C20.1967 11.6125 20.1233 11.5613 20.1271 11.5992ZM21.5654 11.631C21.5716 11.6602 21.6005 11.7927 21.6294 11.9256C21.6585 12.0587 21.6836 12.1742 21.6852 12.1826C21.687 12.1909 21.6992 12.2429 21.7123 12.2982C21.7643 12.5167 21.7879 12.7887 21.7529 12.7672C21.7403 12.7594 21.7221 12.7733 21.7125 12.7983C21.689 12.8595 21.5407 12.7938 21.3798 12.6509C21.1273 12.4268 20.9232 12.2509 20.8803 12.2206C20.851 12.2 20.7617 12.1224 20.6817 12.048C20.6018 11.9737 20.5294 11.9198 20.521 11.9282C20.5058 11.9434 20.6003 12.0319 20.8514 12.2375C20.9262 12.2986 21.0081 12.3717 21.0331 12.3996C21.174 12.5561 21.6281 12.9079 21.6892 12.9079C21.8399 12.9079 21.8598 12.6843 21.7483 12.2429C21.7083 12.0852 21.6598 11.8779 21.6405 11.7827C21.6211 11.6874 21.5938 11.6023 21.5798 11.5938C21.5658 11.5851 21.5592 11.6019 21.5654 11.631ZM11.7698 11.8955C11.7701 11.9619 11.7763 11.9856 11.7836 11.9479C11.7909 11.9104 11.7907 11.856 11.783 11.8272C11.7754 11.7981 11.7696 11.829 11.7698 11.8955ZM18.5793 12.1497C18.5793 12.1679 18.591 12.1826 18.6053 12.1826C18.6195 12.1826 18.6649 12.2132 18.7064 12.2506C18.7478 12.2879 18.8146 12.3458 18.8547 12.3789L18.9278 12.4395L18.8673 12.3681C18.7773 12.2622 18.5793 12.1122 18.5793 12.1497ZM10.1304 16.0207C10.1246 18.0733 10.1224 19.8578 10.1255 19.986C10.1315 20.2291 10.1091 20.3212 10.0622 20.2473C10.0431 20.2173 10.036 20.2244 10.0357 20.2739C10.0353 20.3205 9.99512 20.3666 9.9064 20.4217C9.62517 20.5969 9.44392 20.72 9.43429 20.7421C9.42865 20.755 9.41102 20.7653 9.39484 20.7653C9.37884 20.7653 9.28795 20.8163 9.19287 20.8786C9.09797 20.9408 9.00653 20.9987 8.98981 21.0072C8.96181 21.0214 8.88419 21.071 8.42934 21.3662C8.33772 21.4257 8.2581 21.4848 8.25264 21.4977C8.24701 21.5104 8.22665 21.5213 8.20719 21.5216C8.18774 21.5222 8.02177 21.6232 7.83852 21.7461C7.65527 21.8691 7.50093 21.9579 7.49566 21.9434C7.49039 21.9291 7.46948 21.9236 7.44912 21.9312C7.40258 21.9492 7.27169 21.8239 7.19607 21.689C7.17825 21.6573 7.13826 21.6277 7.10717 21.6234C7.05863 21.6165 7.057 21.6205 7.09627 21.6513C7.12117 21.671 7.17807 21.7416 7.22261 21.8079C7.32696 21.9641 7.44676 22.0981 7.4653 22.0794C7.47348 22.0714 7.48003 22.0827 7.48003 22.1042C7.48003 22.1385 7.72963 22.476 8.18702 23.0598C8.26191 23.1556 8.4517 23.4025 8.60859 23.6089C8.89309 23.9832 8.93054 24.0312 9.15833 24.3164C9.29831 24.4916 9.27922 24.4671 9.48701 24.7395C9.9124 25.297 9.9404 25.3288 10.0091 25.3288C10.1631 25.3288 10.1571 25.6111 10.1487 18.7036C10.1429 13.7567 10.1385 13.1427 10.1304 16.0207ZM19.0036 12.5138C19.0036 12.53 19.0342 12.5592 19.0718 12.5788C19.1396 12.6143 19.1396 12.6141 19.0822 12.5496C19.018 12.4776 19.0036 12.4711 19.0036 12.5138ZM19.3759 12.8399C19.4628 12.9187 19.5385 12.9938 19.5441 13.0065C19.5495 13.019 19.5837 13.0437 19.6197 13.0609C19.6557 13.0783 19.5899 13.0036 19.4732 12.8952C19.3565 12.7867 19.2514 12.6975 19.2396 12.6972C19.228 12.6966 19.2892 12.761 19.3759 12.8399ZM19.8415 13.2598C19.9273 13.3405 20.0324 13.4337 20.0749 13.4669C20.1173 13.5003 20.1527 13.5443 20.1535 13.5652C20.1544 13.586 20.1753 13.6029 20.2004 13.6029C20.2253 13.6029 20.2458 13.6227 20.2458 13.6468C20.2458 13.6709 20.2694 13.7037 20.2982 13.7199C20.3445 13.7458 20.3411 13.7534 20.2678 13.7866C20.2224 13.8072 20.1853 13.8341 20.1853 13.8461C20.1853 13.858 20.1613 13.876 20.1322 13.8856C20.0807 13.903 19.9735 13.9654 19.9428 13.9958C19.9344 14.0042 19.8799 14.0372 19.8217 14.0691C19.7633 14.1012 19.7088 14.1351 19.7004 14.1447C19.6735 14.1755 19.4914 14.2981 19.4725 14.2981C19.4623 14.2981 19.4094 14.332 19.3547 14.3735C19.3001 14.4152 19.246 14.4491 19.2343 14.4491C19.2132 14.4491 19.0325 14.5694 19.0036 14.6026C18.9953 14.6122 18.9407 14.6461 18.8824 14.6782C18.824 14.7101 18.7695 14.7431 18.7611 14.7514C18.7387 14.7737 18.6313 14.8395 18.5793 14.8628C18.5544 14.8738 18.5271 14.8907 18.5188 14.9003C18.4917 14.9311 18.3097 15.0535 18.2908 15.0535C18.2806 15.0535 18.2277 15.0876 18.173 15.1291C18.1185 15.1706 18.0643 15.2047 18.0527 15.2047C18.0316 15.2047 17.8509 15.325 17.822 15.3581C17.8136 15.3676 17.7591 15.4017 17.7007 15.4336C17.6424 15.4657 17.5878 15.4985 17.5795 15.5068C17.5571 15.5293 17.4497 15.595 17.3977 15.6182C17.3728 15.6294 17.3455 15.6463 17.3371 15.6559C17.3101 15.6867 17.1281 15.8091 17.1092 15.8091C17.099 15.8091 17.0461 15.8432 16.9914 15.8847C16.9368 15.9262 16.8774 15.9601 16.8596 15.9601C16.8418 15.9601 16.8225 15.9707 16.817 15.9835C16.8021 16.0176 16.4689 16.2321 16.4305 16.2321C16.4125 16.2321 16.3978 16.2443 16.3978 16.259C16.3978 16.2737 16.374 16.2936 16.3449 16.3034C16.2911 16.3214 16.1833 16.3848 16.1555 16.4147C16.1195 16.4535 15.7003 16.7157 15.6743 16.7157C15.6585 16.7157 15.6408 16.7263 15.6354 16.7389C15.6238 16.7658 15.2913 16.9877 15.2629 16.9877C15.2525 16.9877 15.2274 17.0022 15.2074 17.02C15.1382 17.0811 14.5192 17.4713 14.4916 17.4713C14.4763 17.4713 14.4592 17.4817 14.4537 17.4945C14.4421 17.5212 14.1096 17.7433 14.0812 17.7433C14.0709 17.7433 14.0458 17.7576 14.0258 17.7754C13.9471 17.8445 13.3408 18.2267 13.3099 18.2267C13.2919 18.2267 13.2768 18.2371 13.2763 18.2494C13.2757 18.2619 13.1661 18.3401 13.0325 18.4233C12.8991 18.5063 12.6635 18.6559 12.5091 18.7557C12.3548 18.8554 12.151 18.9869 12.0563 19.048C11.9357 19.1256 11.8772 19.1482 11.8614 19.1234C11.8488 19.104 11.8287 18.2518 11.8163 17.2294C11.8041 16.2073 11.7894 15.2961 11.7838 15.2047C11.7779 15.1132 11.7743 17.333 11.7754 20.1374L11.7774 25.2365L11.845 25.3039L11.9128 25.3716L11.9961 25.3096C12.0417 25.2755 12.1204 25.1922 12.1706 25.1246C12.2421 25.0287 12.6425 24.5221 12.7858 24.3465C12.8153 24.3104 13.0719 23.9772 13.3912 23.5608C13.5184 23.3946 13.6984 23.1626 13.7907 23.0453C13.8833 22.928 13.9929 22.786 14.0345 22.7298C14.0763 22.6736 14.1856 22.5314 14.2776 22.4141C14.3698 22.2968 14.4719 22.1657 14.5048 22.1225C14.5379 22.0794 14.6466 21.9383 14.7466 21.8092C14.8466 21.6799 14.9573 21.5343 14.9928 21.4859C15.0282 21.4373 15.0967 21.3541 15.1453 21.3006C15.1938 21.2473 15.2738 21.1476 15.3232 21.079C15.3727 21.0103 15.4905 20.854 15.585 20.7314C15.6796 20.6088 15.8535 20.3793 15.9719 20.2213C16.0902 20.0636 16.2242 19.889 16.2697 19.8337C16.3742 19.7065 16.4767 19.5749 16.761 19.2034C16.8859 19.0402 17.0699 18.803 17.1701 18.6762C17.2702 18.5495 17.4068 18.3745 17.4735 18.2875C17.5402 18.2006 17.6107 18.1125 17.6302 18.0918C17.6498 18.0713 17.7044 18.0001 17.7514 17.9337C17.8603 17.7801 18.0592 17.5196 18.2912 17.2256C18.3913 17.0989 18.5455 16.9016 18.6337 16.7874C18.7218 16.6731 18.9096 16.4301 19.0511 16.2474C19.1925 16.0644 19.3552 15.8537 19.4127 15.7788C19.5883 15.5502 20.2489 14.6983 20.4645 14.4225C20.7465 14.0618 20.7455 14.01 20.4534 13.7501C20.3343 13.6442 20.1991 13.5237 20.1529 13.4821C19.7857 13.1516 19.5394 12.9759 19.8415 13.2598ZM5.30852 19.345C5.34416 19.3948 5.38015 19.4356 5.38851 19.4356C5.39688 19.4356 5.37452 19.3948 5.33888 19.345C5.30325 19.2951 5.26726 19.2543 5.25908 19.2543C5.25072 19.2543 5.27307 19.2951 5.30852 19.345ZM5.71556 19.8663C5.76228 19.9287 5.80627 19.9796 5.81318 19.9796C5.8399 19.9796 5.76537 19.8703 5.69974 19.813C5.6432 19.7638 5.64611 19.7735 5.71556 19.8663ZM6.00115 20.244C6.03915 20.298 6.07659 20.3423 6.08441 20.3423C6.11059 20.3423 6.03951 20.2319 5.98552 20.1887C5.94771 20.1582 5.95207 20.1744 6.00115 20.244ZM6.23512 20.5392C6.27947 20.597 6.3202 20.6446 6.32583 20.6446C6.35128 20.6446 6.22821 20.4623 6.19367 20.4491C6.17222 20.4407 6.19094 20.4814 6.23512 20.5392ZM6.41618 20.7729C6.4649 20.827 6.51526 20.8841 6.5278 20.8999C6.54234 20.9178 6.55089 20.9176 6.55089 20.899C6.55089 20.8634 6.38182 20.6747 6.35001 20.6747C6.33747 20.6747 6.36728 20.7189 6.41618 20.7729ZM6.67287 21.0979C6.74268 21.1893 6.81431 21.2694 6.83194 21.2758C6.86884 21.2894 6.84921 21.2641 6.66996 21.0676L6.54598 20.9316L6.67287 21.0979ZM6.97119 21.4814C6.9901 21.518 7.02009 21.5566 7.03773 21.5675C7.09808 21.6047 7.08445 21.5664 7.01046 21.4906C6.94356 21.4223 6.93992 21.4214 6.97119 21.4814Z" fill="#FC3146"/>
<path fill-rule="evenodd" clip-rule="evenodd" d="M21.146 9.91664C21.1549 9.95 21.1764 9.98627 21.1938 9.99715C21.2138 10.0095 21.2182 9.99715 21.2053 9.96397C21.1942 9.93495 21.1851 9.89869 21.1851 9.88346C21.1851 9.86822 21.1728 9.85571 21.1577 9.85571C21.1426 9.85571 21.1373 9.88309 21.146 9.91664ZM21.2286 10.2962C21.2351 10.3281 21.2493 10.3767 21.2602 10.404C21.2711 10.4316 21.2662 10.4626 21.2491 10.4731C21.232 10.4836 21.224 10.5089 21.2315 10.529C21.2511 10.5825 21.0619 10.7623 20.9861 10.7623C20.9753 10.7623 20.9168 10.8012 20.8561 10.8488C20.7954 10.8963 20.6979 10.9595 20.6397 10.989C20.5814 11.0186 20.5269 11.0521 20.5185 11.0633C20.5101 11.0748 20.4556 11.1103 20.3972 11.1424C20.3389 11.1743 20.2845 11.2073 20.2762 11.2157C20.1609 11.3306 19.9428 11.41 19.9428 11.3372C19.9428 11.3208 19.9097 11.2991 19.8693 11.2889C19.8288 11.2789 19.7884 11.2514 19.7793 11.228C19.7702 11.2046 19.7457 11.1854 19.7246 11.1854C19.6864 11.1854 20.0555 11.5352 20.1549 11.5934C20.2031 11.6217 20.5425 11.9172 20.7321 12.0962C20.7785 12.1399 20.8428 12.1943 20.875 12.217C20.9223 12.2503 21.12 12.4206 21.3798 12.651C21.5407 12.7939 21.689 12.8596 21.7125 12.7985C21.7221 12.7734 21.7403 12.7595 21.7529 12.7673C21.7879 12.7889 21.7643 12.5169 21.7123 12.2984C21.6992 12.2431 21.687 12.191 21.6852 12.1827C21.6836 12.1743 21.6596 12.0655 21.632 11.941C21.6043 11.8162 21.5745 11.6735 21.5658 11.6237C21.5393 11.473 21.4996 11.3043 21.4271 11.0343C21.3893 10.8929 21.36 10.746 21.3624 10.7078C21.3646 10.6695 21.3542 10.6456 21.3391 10.6548C21.3242 10.6641 21.3186 10.6459 21.3269 10.6146C21.3351 10.5832 21.3271 10.5484 21.3089 10.5373C21.2907 10.5261 21.276 10.5034 21.276 10.4867C21.276 10.47 21.2891 10.4646 21.3051 10.4744C21.3218 10.4849 21.3202 10.4506 21.3009 10.3932C21.2626 10.2786 21.2109 10.2093 21.2286 10.2962ZM19.5186 11.0218C19.5186 11.0394 19.5528 11.0858 19.5944 11.125C19.6361 11.164 19.6701 11.1861 19.6701 11.1741C19.6701 11.1624 19.6361 11.1159 19.5944 11.071C19.5528 11.0262 19.5186 11.0041 19.5186 11.0218ZM18.4582 12.0918C18.4582 12.1285 18.5431 12.1684 18.568 12.1435C18.5771 12.1344 18.5561 12.112 18.5213 12.0935C18.4775 12.0701 18.4582 12.0695 18.4582 12.0918ZM18.5902 12.2278C18.6017 12.2574 18.5635 12.3051 18.4799 12.3658C18.2874 12.5056 17.9798 12.6964 17.9469 12.6964C17.9309 12.6964 17.9132 12.7067 17.9078 12.719C17.9021 12.7316 17.8431 12.7771 17.7765 12.8204C17.6364 12.9113 17.2179 13.1811 16.9685 13.3415C16.8739 13.4023 16.783 13.452 16.7665 13.452C16.7498 13.452 16.7316 13.4621 16.7261 13.4746C16.7205 13.4871 16.6614 13.5327 16.5949 13.5758C16.3031 13.7649 15.9448 13.9954 15.7768 14.1017C15.6768 14.1649 15.5199 14.2667 15.4283 14.328C15.3367 14.3893 15.248 14.4449 15.2314 14.4518C15.2147 14.4587 15.0989 14.5312 14.9738 14.6128C14.849 14.6944 14.6717 14.8087 14.5799 14.8667C14.4883 14.9247 14.3383 15.0223 14.2467 15.0836C14.1551 15.1447 14.0663 15.2005 14.0498 15.2074C14.0331 15.2143 13.9205 15.2845 13.7998 15.3635C13.6789 15.4424 13.4813 15.5717 13.3604 15.6506C13.2396 15.7294 13.1272 15.7993 13.1105 15.8056C13.0938 15.8119 13.0598 15.8348 13.0347 15.8564C13.0096 15.8779 12.955 15.9138 12.9134 15.9362C12.8718 15.9583 12.7356 16.043 12.6106 16.124C12.4857 16.2051 12.3288 16.3068 12.2621 16.3501C12.1955 16.3935 12.1364 16.439 12.1308 16.4515C12.1253 16.4638 12.103 16.4742 12.0815 16.4742C12.0599 16.4742 12.0254 16.4945 12.0046 16.5195C11.8836 16.6649 11.8574 16.5761 11.8261 15.9149C11.8101 15.5755 11.8058 15.9498 11.813 17.0181C11.8288 19.3422 11.8123 19.2051 12.0563 19.0481C12.151 18.987 12.3548 18.8555 12.5091 18.7558C12.6635 18.6561 12.8991 18.5065 13.0325 18.4234C13.1661 18.3402 13.2757 18.262 13.2763 18.2495C13.2768 18.2372 13.2919 18.2269 13.3099 18.2269C13.3408 18.2269 13.9471 17.8446 14.0258 17.7755C14.0458 17.7578 14.0709 17.7434 14.0812 17.7434C14.1096 17.7434 14.4421 17.5213 14.4537 17.4947C14.4592 17.4818 14.4763 17.4715 14.4916 17.4715C14.5192 17.4715 15.1382 17.0812 15.2074 17.0201C15.2274 17.0024 15.2525 16.9879 15.2629 16.9879C15.2913 16.9879 15.6238 16.7659 15.6354 16.7391C15.6408 16.7264 15.6585 16.7159 15.6743 16.7159C15.7003 16.7159 16.1195 16.4537 16.1555 16.4149C16.1833 16.3849 16.2911 16.3215 16.3449 16.3035C16.374 16.2937 16.3978 16.2738 16.3978 16.2591C16.3978 16.2444 16.4125 16.2323 16.4305 16.2323C16.4689 16.2323 16.8021 16.0178 16.817 15.9837C16.8225 15.9708 16.8418 15.9603 16.8596 15.9603C16.8774 15.9603 16.9368 15.9264 16.9914 15.8848C17.0461 15.8433 17.099 15.8092 17.1092 15.8092C17.1281 15.8092 17.3101 15.6868 17.3371 15.656C17.3455 15.6464 17.3728 15.6295 17.3977 15.6183C17.4497 15.5951 17.5571 15.5294 17.5795 15.507C17.5878 15.4986 17.6424 15.4658 17.7007 15.4337C17.7591 15.4018 17.8136 15.3677 17.822 15.3583C17.8509 15.3251 18.0316 15.2049 18.0527 15.2049C18.0643 15.2049 18.1185 15.1708 18.173 15.1292C18.2277 15.0877 18.2806 15.0536 18.2908 15.0536C18.3079 15.0536 18.485 14.9363 18.5188 14.9026C18.5413 14.8801 18.6486 14.8145 18.7006 14.7913C18.7255 14.7802 18.7527 14.7631 18.7611 14.7537C18.7695 14.7441 18.824 14.7102 18.8824 14.6783C18.9407 14.6462 18.9953 14.6123 19.0036 14.6027C19.0325 14.5695 19.2132 14.4493 19.2343 14.4493C19.246 14.4493 19.3001 14.4154 19.3547 14.3737C19.4094 14.3321 19.4623 14.2982 19.4725 14.2982C19.4914 14.2982 19.6735 14.1756 19.7004 14.1448C19.7088 14.1352 19.7633 14.1013 19.8217 14.0692C19.8799 14.0373 19.9344 14.0043 19.9428 13.996C19.9735 13.9655 20.0807 13.9031 20.1322 13.8857C20.1613 13.8761 20.1853 13.8581 20.1853 13.8462C20.1853 13.8342 20.2224 13.8074 20.2678 13.7867C20.3411 13.7535 20.3445 13.7459 20.2982 13.72C20.2694 13.7038 20.2458 13.671 20.2458 13.6469C20.2458 13.6228 20.2253 13.603 20.2004 13.603C20.1753 13.603 20.1544 13.5862 20.1535 13.5653C20.1527 13.5444 20.1171 13.5004 20.0742 13.467C20.0315 13.4338 19.9195 13.3363 19.8257 13.2502C19.7317 13.1642 19.5684 13.0146 19.4626 12.9178C19.357 12.821 19.2523 12.7314 19.2301 12.7189C19.2078 12.7062 19.1363 12.6451 19.0711 12.5829C18.7024 12.2316 18.5479 12.1174 18.5902 12.2278ZM10.0676 17.6336C10.0656 17.7117 9.91313 17.8925 9.84805 17.8939C9.83659 17.8943 9.80878 17.9115 9.78605 17.9322C9.76333 17.9531 9.71807 17.9862 9.68552 18.006C9.6528 18.0258 9.517 18.1112 9.38375 18.1959C9.2505 18.2805 9.11415 18.3663 9.0807 18.3866C9.04743 18.4067 9.01344 18.4316 9.00508 18.4417C8.99672 18.4519 8.94218 18.4847 8.88382 18.5144C8.75657 18.5795 8.59986 18.6865 8.58587 18.7181C8.58041 18.7304 8.56532 18.7407 8.55242 18.7407C8.53278 18.7407 8.1772 18.9612 8.07921 19.0341C8.00195 19.0918 7.92542 19.1366 7.87633 19.1531C7.84725 19.1629 7.82343 19.1808 7.82343 19.193C7.82343 19.2051 7.76889 19.2396 7.70218 19.2695C7.63546 19.2996 7.58092 19.3339 7.58092 19.346C7.58092 19.3582 7.54002 19.3848 7.49002 19.4055C7.44003 19.4262 7.39913 19.455 7.39913 19.4697C7.39913 19.4842 7.38749 19.4961 7.37331 19.4961C7.35168 19.4961 7.00155 19.7121 6.89757 19.7897C6.82031 19.8474 6.74377 19.8922 6.69469 19.9087C6.6656 19.9183 6.64179 19.9368 6.64179 19.9495C6.64179 19.962 6.59961 19.9897 6.54816 20.0111C6.4969 20.0323 6.43854 20.0646 6.41873 20.0827C6.21658 20.2677 6.08859 20.2862 6.00206 20.1433C5.97515 20.0991 5.94552 20.0753 5.93589 20.0905C5.92643 20.1058 5.97915 20.1839 6.05296 20.2641C6.12677 20.3444 6.18731 20.422 6.18731 20.4367C6.18731 20.4514 6.19785 20.4633 6.21058 20.4633C6.22348 20.4633 6.25948 20.5105 6.29074 20.5682C6.32183 20.6258 6.3591 20.6659 6.37328 20.657C6.38764 20.6483 6.39964 20.6588 6.39982 20.6806C6.40018 20.7023 6.43418 20.7522 6.47563 20.7914C6.5169 20.8305 6.55125 20.878 6.55162 20.8971C6.55216 20.9161 6.60325 20.9877 6.66524 21.0563C6.72723 21.1248 6.79849 21.2115 6.82358 21.2489C6.84848 21.2864 6.88702 21.3355 6.90902 21.3586C6.93102 21.3814 6.94083 21.4001 6.93065 21.4001C6.92065 21.4001 6.95065 21.4376 6.99755 21.4833C7.04445 21.529 7.08918 21.58 7.09699 21.5966C7.10499 21.6131 7.12117 21.6235 7.13317 21.6195C7.14517 21.6155 7.17116 21.6425 7.19098 21.6793C7.21079 21.7163 7.24188 21.7633 7.26006 21.7838C7.35532 21.8913 7.38404 21.9294 7.38404 21.9484C7.38404 21.9598 7.3964 21.9807 7.41167 21.9945C7.42749 22.009 7.43076 22.0048 7.41931 21.985C7.4084 21.966 7.41895 21.943 7.44294 21.9339C7.46676 21.9248 7.49039 21.9292 7.49566 21.9435C7.50093 21.958 7.65527 21.8692 7.83852 21.7462C8.02177 21.6233 8.18774 21.5223 8.20719 21.5218C8.22665 21.5214 8.24701 21.5105 8.25264 21.4978C8.2581 21.4849 8.33772 21.4258 8.42934 21.3664C8.88419 21.0712 8.96181 21.0215 8.98981 21.0073C9.00653 20.9988 9.09797 20.941 9.19287 20.8788C9.28795 20.8164 9.37884 20.7654 9.39484 20.7654C9.41102 20.7654 9.42865 20.7551 9.43429 20.7422C9.44392 20.7201 9.62517 20.597 9.9064 20.4218C9.99293 20.368 10.036 20.3196 10.0375 20.274C10.0389 20.2369 10.0469 20.2235 10.0553 20.2443C10.0637 20.2653 10.0829 20.2748 10.098 20.2655C10.1324 20.2443 10.1293 17.6909 10.0947 17.6074C10.0731 17.5552 10.0695 17.5587 10.0676 17.6336ZM5.61157 19.7172C5.61157 19.7224 5.65593 19.7667 5.7101 19.8155L5.80845 19.9041L5.71956 19.806C5.63666 19.7145 5.61157 19.6938 5.61157 19.7172Z" fill="#FC5234"/>
<path fill-rule="evenodd" clip-rule="evenodd" d="M19.4329 2.51176C19.4345 2.59028 19.4821 2.7192 19.4832 2.64776C19.4838 2.6144 19.4723 2.56 19.4581 2.52681C19.4421 2.48982 19.4323 2.48402 19.4329 2.51176ZM19.5238 2.85918C19.5234 2.89255 19.5347 2.94695 19.549 2.98013C19.5821 3.05719 19.5821 2.97777 19.549 2.87442C19.5294 2.81367 19.5245 2.81059 19.5238 2.85918ZM20.0759 5.36676C20.0869 5.44128 20.1246 5.4576 20.1246 5.38779C20.1246 5.35171 20.1122 5.32233 20.0969 5.32233C20.0819 5.32233 20.0724 5.34228 20.0759 5.36676ZM20.1033 5.55643C20.1119 5.60212 20.1289 5.67103 20.1409 5.70947C20.1586 5.76513 20.1498 5.78254 20.0984 5.79596C20.0628 5.80521 20.0337 5.82316 20.0337 5.83585C20.0337 5.84854 19.9928 5.87574 19.9428 5.89641C19.8928 5.91708 19.8519 5.94592 19.8519 5.9606C19.8519 5.97511 19.8373 5.98708 19.8197 5.98708C19.8019 5.98708 19.7426 6.02117 19.6879 6.06269C19.6334 6.10422 19.5799 6.13831 19.5692 6.13831C19.5583 6.13831 19.4599 6.19941 19.3503 6.2743C19.2409 6.34901 19.1385 6.4103 19.1229 6.4103C19.1073 6.4103 19.0945 6.42226 19.0945 6.43695C19.0945 6.45164 19.0705 6.47159 19.0415 6.48138C18.9817 6.50132 18.8893 6.5588 18.8304 6.6123C18.8088 6.63188 18.7639 6.65672 18.7308 6.66724C18.6975 6.67775 18.6702 6.69897 18.6702 6.71456C18.6702 6.72998 18.6557 6.74267 18.6381 6.74267C18.6203 6.74267 18.561 6.77676 18.5063 6.81828C18.4517 6.85981 18.3966 6.89371 18.3839 6.89371C18.3712 6.89371 18.3112 6.93125 18.2503 6.97694C18.1027 7.08792 18.0296 7.13379 17.9658 7.15501C17.9367 7.1648 17.9129 7.18329 17.9129 7.19599C17.9129 7.20868 17.8889 7.22717 17.8598 7.23697C17.7991 7.25727 17.7071 7.31457 17.6468 7.3697C17.624 7.39055 17.5939 7.4076 17.5795 7.4076C17.5653 7.4076 17.5355 7.42464 17.5135 7.44531C17.4608 7.49518 17.2226 7.6493 17.1983 7.6493C17.1877 7.6493 17.1296 7.68666 17.0687 7.73235C16.921 7.8435 16.848 7.8892 16.7842 7.9106C16.7551 7.92039 16.7313 7.93725 16.7313 7.94813C16.7313 7.95901 16.68 7.99473 16.6176 8.02755C16.5551 8.06019 16.4971 8.09501 16.4887 8.10498C16.4122 8.19582 16.2615 8.17298 16.1788 8.05802C16.1646 8.03843 16.1562 8.04133 16.1561 8.06581C16.1557 8.08703 16.1759 8.11223 16.2008 8.12184C16.2257 8.13145 16.239 8.15067 16.2302 8.16464C16.2095 8.198 16.3077 8.24823 16.3731 8.23771C16.406 8.23227 16.4182 8.24442 16.4077 8.2718C16.3973 8.29864 16.412 8.31441 16.4477 8.31459C16.4951 8.31496 16.4967 8.31967 16.4586 8.34433C16.4233 8.367 16.4224 8.3737 16.4542 8.37407C16.4769 8.37443 16.5567 8.43917 16.6318 8.51823C16.7067 8.5971 16.7585 8.64134 16.7469 8.61632C16.7353 8.59148 16.7718 8.61868 16.8281 8.67689C16.8843 8.73491 17.0032 8.84044 17.0923 8.91098C17.1814 8.98169 17.2426 9.03954 17.2283 9.03954C17.2141 9.03954 17.2363 9.06275 17.2774 9.09122C17.3186 9.11969 17.3766 9.17354 17.4064 9.21071C17.4362 9.24806 17.4788 9.27164 17.501 9.26311C17.5242 9.25405 17.5482 9.27382 17.5575 9.30954C17.5664 9.34363 17.5989 9.38098 17.6297 9.3924C17.6604 9.40365 17.7162 9.44807 17.7536 9.49068C17.7913 9.53347 17.8218 9.55505 17.8218 9.53892C17.822 9.52278 17.8431 9.53982 17.8691 9.57681C17.8951 9.61362 17.936 9.6439 17.96 9.6439C17.984 9.6439 18.0038 9.66421 18.0038 9.68923C18.0038 9.71408 18.0242 9.73457 18.0492 9.73457C18.0741 9.73457 18.0912 9.75161 18.0871 9.77228C18.0829 9.79313 18.0965 9.80673 18.1174 9.80256C18.1381 9.79839 18.1552 9.81635 18.1552 9.84246C18.1552 9.87528 18.1729 9.88416 18.2132 9.87129C18.2452 9.86131 18.2814 9.86929 18.2938 9.88906C18.3077 9.91191 18.3032 9.91734 18.281 9.90374C18.2619 9.89178 18.2461 9.89559 18.2461 9.91209C18.2461 10.0176 18.7175 9.79368 18.9913 9.55795C19.0095 9.54236 19.0709 9.50555 19.1276 9.47617C19.2532 9.41144 19.409 9.30464 19.4227 9.27363C19.4283 9.2613 19.4459 9.25097 19.4618 9.25097C19.4778 9.25097 19.5278 9.22594 19.5728 9.1953C19.6181 9.16466 19.7165 9.1001 19.7914 9.05187C19.8662 9.00364 19.9344 8.95722 19.9428 8.94888C19.9731 8.91841 20.0806 8.85604 20.1322 8.83863C20.1613 8.82884 20.1853 8.81143 20.1853 8.79983C20.1853 8.78822 20.2358 8.75467 20.2978 8.72512C20.3596 8.69574 20.4585 8.63373 20.5174 8.58767C20.5763 8.54143 20.6563 8.49375 20.6949 8.48178C20.7399 8.46763 20.7592 8.44388 20.7483 8.41559C20.739 8.39129 20.7434 8.37897 20.7581 8.38803C20.7728 8.3971 20.7923 8.38531 20.8012 8.36192C20.8103 8.33835 20.7965 8.31115 20.7708 8.30118C20.7334 8.28685 20.7281 8.25512 20.7447 8.14433C20.759 8.04931 20.7554 8.01178 20.7334 8.02538C20.7125 8.03825 20.7049 8.01287 20.7118 7.95375C20.7178 7.90352 20.7109 7.86944 20.6965 7.87832C20.6821 7.88721 20.6703 7.86309 20.6701 7.82465C20.6694 7.70098 20.6512 7.60542 20.6158 7.53996C20.5969 7.50479 20.588 7.46925 20.5961 7.46109C20.6043 7.45293 20.5971 7.40941 20.58 7.36462C20.5629 7.31983 20.5432 7.23969 20.5361 7.18656C20.5291 7.13361 20.5011 7.00178 20.4742 6.89371C20.4473 6.78564 20.4191 6.67014 20.4118 6.63696C20.4045 6.60359 20.3698 6.45399 20.3347 6.3044C20.2996 6.1548 20.2647 5.99161 20.2569 5.94175C20.2264 5.74428 20.1764 5.59614 20.1468 5.61445C20.1269 5.6266 20.1231 5.60466 20.136 5.55353C20.1489 5.50221 20.1438 5.47338 20.1218 5.47338C20.1008 5.47338 20.0935 5.50547 20.1033 5.55643ZM15.9434 7.90026C15.9434 7.9057 15.9861 7.94994 16.0381 7.99872C16.1044 8.06092 16.1212 8.06853 16.0943 8.02393C16.061 7.96916 15.9434 7.8727 15.9434 7.90026ZM5.71577 8.19528C5.66686 8.24623 5.64723 8.2796 5.67232 8.26944C5.71304 8.25312 5.84229 8.10262 5.81557 8.10262C5.80957 8.10262 5.76467 8.14433 5.71577 8.19528ZM11.8045 8.6466C11.8045 8.88759 11.8092 8.98623 11.8151 8.86565C11.8207 8.74524 11.8207 8.54796 11.8151 8.42756C11.8092 8.30698 11.8045 8.40562 11.8045 8.6466ZM14.6406 8.72258C14.6406 8.73509 14.6746 8.77698 14.7163 8.81542C14.7875 8.88124 14.8183 8.87979 14.7688 8.81288C14.7315 8.76229 14.6406 8.6981 14.6406 8.72258ZM14.8526 8.94507C14.8526 8.98315 14.9415 9.05151 14.9631 9.03011C14.973 9.02014 14.9601 8.99112 14.9342 8.96538C14.8815 8.91279 14.8526 8.90572 14.8526 8.94507ZM14.9661 9.10572C14.9917 9.13655 14.9801 9.14598 14.913 9.14834C14.8659 9.14997 14.775 9.19167 14.7112 9.24099C14.5605 9.35722 14.1958 9.58352 14.1591 9.58352C14.1434 9.58352 14.126 9.59368 14.1205 9.60619C14.1149 9.61852 14.0558 9.66457 13.9891 9.70846C13.6264 9.9469 13.1578 10.2446 13.0651 10.2958C13.0067 10.3279 12.9522 10.3616 12.9438 10.371C12.9296 10.3868 12.7357 10.5132 12.1734 10.8733C12.0388 10.9592 11.913 11.0436 11.8938 11.0606C11.8676 11.0838 11.8538 11.0097 11.8391 10.7681C11.8281 10.5902 11.814 10.4243 11.8074 10.3995C11.8007 10.3745 11.8014 11.1823 11.8089 12.1943C11.8236 14.1648 11.8231 14.1595 11.9696 14.0592C12.0138 14.0288 12.125 13.9566 12.2166 13.8986C12.3084 13.8407 12.4651 13.7404 12.5651 13.6755C12.6651 13.6108 12.7606 13.551 12.7773 13.5426C12.7938 13.5341 12.9098 13.4605 13.0347 13.3789C13.1598 13.2973 13.3301 13.187 13.4136 13.1341C13.4968 13.0811 13.6468 12.9849 13.7468 12.9201C13.8468 12.8552 13.9422 12.7954 13.9589 12.787C13.9755 12.7787 14.0845 12.7094 14.2013 12.6333C14.7548 12.2715 14.8732 12.1957 14.9435 12.1582C14.9851 12.1361 15.0397 12.1002 15.0648 12.0786C15.0897 12.057 15.1239 12.0342 15.1406 12.0278C15.1571 12.0215 15.2696 11.9517 15.3905 11.8728C15.5112 11.7937 15.709 11.6646 15.8297 11.5856C15.9506 11.5067 16.0632 11.4365 16.0797 11.4294C16.0964 11.4225 16.185 11.3669 16.2768 11.3056C16.5747 11.1067 16.7743 10.9812 16.8894 10.9206C16.9998 10.8626 17.017 10.8135 16.9176 10.8401C16.8901 10.8476 16.9085 10.8323 16.9585 10.8064C17.0316 10.7685 17.0356 10.762 16.9789 10.7736C16.9245 10.7846 16.9123 10.777 16.9261 10.7415C16.9381 10.7101 16.9301 10.7001 16.902 10.711C16.8778 10.7203 16.8436 10.6965 16.8214 10.655C16.8001 10.6153 16.7687 10.5913 16.7518 10.6019C16.7331 10.6133 16.7285 10.6009 16.7402 10.5707C16.7509 10.5429 16.7463 10.5186 16.7302 10.5166C16.7142 10.5145 16.6883 10.511 16.6731 10.509C16.6578 10.5068 16.634 10.4929 16.6202 10.4776C16.6051 10.4613 16.6135 10.4601 16.6404 10.4746C16.678 10.4949 16.6791 10.4918 16.6464 10.4568C16.6247 10.4336 16.5905 10.414 16.5705 10.4131C16.5506 10.4124 16.5376 10.3955 16.5418 10.3754C16.546 10.3554 16.5298 10.3389 16.5058 10.3389C16.4817 10.3389 16.4524 10.3233 16.4404 10.3041C16.4262 10.2811 16.4322 10.2775 16.4586 10.2936C16.4829 10.3086 16.4907 10.3063 16.4789 10.2871C16.4684 10.2702 16.4188 10.2392 16.3686 10.2185C16.3186 10.1979 16.285 10.1688 16.294 10.1542C16.3031 10.1395 16.298 10.1275 16.2826 10.1275C16.2671 10.1275 16.1873 10.0628 16.1052 9.98389C16.023 9.90501 15.8894 9.78588 15.8085 9.71952C15.6051 9.5527 15.3978 9.36992 15.32 9.28887C15.2842 9.25133 15.2407 9.22087 15.2237 9.22087C15.2064 9.22087 15.1842 9.19947 15.1742 9.17354C15.1642 9.14761 15.142 9.13492 15.1248 9.14562C15.1077 9.15613 15.0973 9.14852 15.1019 9.12857C15.1064 9.10863 15.0704 9.08632 15.0217 9.07925C14.9515 9.06891 14.9401 9.07435 14.9661 9.10572ZM11.8034 9.49286C11.8034 9.65061 11.8085 9.71534 11.8149 9.63629C11.8211 9.55741 11.8211 9.42812 11.8149 9.34925C11.8085 9.27037 11.8034 9.33492 11.8034 9.49286ZM11.8007 10.2182C11.8007 10.2929 11.8067 10.3235 11.814 10.2862C11.8211 10.2486 11.8211 10.1875 11.814 10.1502C11.8067 10.1126 11.8007 10.1433 11.8007 10.2182ZM5.5567 10.189C5.52016 10.2229 5.49034 10.2593 5.49034 10.2698C5.49034 10.2804 5.52452 10.2572 5.56615 10.2182C5.63723 10.1516 5.65487 10.1275 5.63251 10.1275C5.62723 10.1275 5.59324 10.1552 5.5567 10.189ZM10.094 11.4798C10.0929 11.725 10.0819 11.9885 10.0691 12.0652C10.0564 12.1419 10.0568 12.2334 10.0697 12.2686C10.0906 12.3248 10.0868 12.3285 10.0388 12.2985C9.98914 12.2677 9.86098 12.3261 9.76245 12.4242C9.75409 12.4325 9.69955 12.4655 9.64138 12.4974C9.58302 12.5295 9.44213 12.6178 9.32815 12.694C9.21417 12.77 9.09873 12.8458 9.07164 12.8625C8.89821 12.9687 8.59353 13.1649 8.5808 13.1785C8.57244 13.1876 8.5179 13.2211 8.45973 13.253C8.40138 13.2851 8.34684 13.319 8.33847 13.3287C8.33011 13.3383 8.27557 13.372 8.21722 13.4039C8.15886 13.4356 8.06161 13.5002 8.00089 13.5473C7.94017 13.5945 7.88163 13.6331 7.87109 13.6331C7.85127 13.6331 7.42679 13.9042 7.39916 13.9345C7.39079 13.9435 7.33298 13.9778 7.27045 14.0104C7.20791 14.0433 7.15683 14.0788 7.15683 14.0897C7.15683 14.1007 7.13301 14.1176 7.10374 14.1274C7.04012 14.1486 6.96686 14.1945 6.81924 14.3055C6.75852 14.3512 6.69999 14.3887 6.68944 14.3887C6.66963 14.3887 6.24514 14.6598 6.21751 14.6899C6.20915 14.6991 6.15134 14.7332 6.0888 14.766C6.02627 14.7987 5.97518 14.8344 5.97518 14.8453C5.97518 14.8561 5.95137 14.8732 5.9221 14.8828C5.85847 14.9042 5.78521 14.9501 5.6376 15.0611C5.57688 15.1067 5.5167 15.1441 5.50398 15.1441C5.49144 15.1441 5.43635 15.1782 5.38163 15.2197C5.3271 15.2612 5.26783 15.2953 5.25002 15.2953C5.2322 15.2953 5.21766 15.3073 5.21766 15.3218C5.21766 15.3365 5.17675 15.3653 5.12676 15.386C5.07677 15.4067 5.03568 15.432 5.0355 15.4426C5.03532 15.4529 4.98078 15.4875 4.91443 15.5193C4.84789 15.551 4.79354 15.5867 4.79354 15.5989C4.79354 15.6108 4.76972 15.6286 4.74045 15.6384C4.689 15.6556 4.58175 15.718 4.55121 15.7486C4.51467 15.7851 4.3396 15.8997 4.32033 15.8997C4.30888 15.8997 4.25471 15.9338 4.19999 15.9753C4.14545 16.0168 4.08619 16.0507 4.06837 16.0507C4.05055 16.0507 4.03601 16.0627 4.03601 16.0774C4.03601 16.0919 3.99511 16.1207 3.94511 16.1414C3.89512 16.1621 3.85422 16.1889 3.85422 16.2011C3.85422 16.213 3.79968 16.2475 3.73315 16.2774C3.66643 16.3075 3.61189 16.3436 3.61189 16.3575C3.61189 16.3717 3.59807 16.3833 3.58135 16.3833C3.53263 16.3833 3.30902 16.5545 3.33011 16.5757C3.39592 16.6413 3.28794 16.5784 3.20995 16.5055C3.15723 16.4565 3.10687 16.4235 3.09797 16.4326C3.08906 16.4415 3.11996 16.4817 3.16668 16.5218C3.21358 16.5621 3.24431 16.6069 3.23522 16.6216C3.22613 16.6362 3.24722 16.6558 3.28194 16.6649C3.31684 16.674 3.33738 16.6941 3.32775 16.7097C3.31811 16.7251 3.3372 16.7621 3.37029 16.7918C3.40319 16.8216 3.4301 16.8631 3.4301 16.8839C3.4301 16.9048 3.47209 16.957 3.52336 17.0002C3.57462 17.0431 3.60607 17.0783 3.59335 17.0783C3.58062 17.0783 3.60007 17.1061 3.63643 17.14C3.67297 17.1739 3.70279 17.2214 3.70279 17.2457C3.70279 17.27 3.72315 17.2899 3.74823 17.2899C3.77314 17.2899 3.79368 17.3102 3.79368 17.3353C3.79368 17.3601 3.80732 17.3806 3.82404 17.3806C3.84059 17.3806 3.85422 17.4002 3.85422 17.4243C3.85422 17.4484 3.87822 17.4821 3.9073 17.499C3.93639 17.5159 3.95111 17.5302 3.93984 17.5307C3.92875 17.5313 3.95602 17.5704 4.00056 17.6179C4.11364 17.7383 4.2158 17.864 4.20035 17.864C4.19326 17.864 4.21489 17.8912 4.24816 17.9246C4.28143 17.9578 4.3087 17.9993 4.3087 18.017C4.3087 18.0346 4.32233 18.0406 4.33906 18.0303C4.35578 18.0199 4.36942 18.0328 4.36942 18.0588C4.36942 18.0847 4.38305 18.1059 4.39959 18.1059C4.41632 18.1059 4.42995 18.1271 4.42995 18.153C4.42995 18.1811 4.44413 18.1913 4.4654 18.1782C4.4894 18.1634 4.49449 18.173 4.48085 18.2082C4.46904 18.239 4.47304 18.2526 4.49085 18.2415C4.5074 18.2314 4.52085 18.2452 4.52085 18.272C4.52085 18.3017 4.53485 18.3124 4.5563 18.299C4.58011 18.2845 4.58538 18.2937 4.57248 18.3271C4.56193 18.3547 4.56303 18.3757 4.57502 18.3739C4.62629 18.3663 4.67192 18.3795 4.66628 18.4006C4.65465 18.4443 4.70737 18.5599 4.73191 18.5447C4.74572 18.5362 4.76463 18.5496 4.77427 18.5744C4.7919 18.6201 4.88443 18.6388 4.88443 18.5967C4.88443 18.5842 4.9257 18.5558 4.97605 18.5335C5.02641 18.5112 5.08422 18.4773 5.10476 18.458C5.12531 18.4388 5.19312 18.3962 5.25565 18.3634C5.31801 18.3306 5.36927 18.2963 5.36927 18.2872C5.36927 18.2782 5.42036 18.2442 5.48289 18.212C5.54525 18.1797 5.64614 18.1155 5.70686 18.0691C5.76758 18.0228 5.82611 17.985 5.83684 17.985C5.85502 17.985 6.03226 17.868 6.06608 17.8335C6.07444 17.825 6.13243 17.7915 6.19479 17.7587C6.25732 17.726 6.30841 17.6903 6.30841 17.6794C6.30841 17.6685 6.3324 17.6515 6.36149 17.6419C6.41694 17.6232 6.52492 17.5592 6.55092 17.5293C6.55928 17.5198 6.61363 17.4858 6.67199 17.4538C6.73034 17.4217 6.82779 17.3583 6.8885 17.3126C6.94922 17.2669 7.00867 17.2294 7.02048 17.2294C7.0323 17.2294 7.09175 17.1906 7.15246 17.1429C7.21318 17.0954 7.31063 17.0323 7.36898 17.0027C7.42715 16.9731 7.48169 16.9407 7.49005 16.9305C7.51459 16.9006 7.62222 16.8362 7.67948 16.817C7.70857 16.8072 7.73256 16.7904 7.73256 16.7795C7.73256 16.7686 7.78365 16.7329 7.84618 16.7001C7.90854 16.6674 7.96653 16.6337 7.97489 16.6254C8.0087 16.5909 8.18595 16.474 8.20413 16.474C8.21486 16.474 8.27339 16.435 8.33411 16.3875C8.39483 16.3398 8.49227 16.2767 8.55063 16.2471C8.6088 16.2176 8.66333 16.1842 8.6717 16.1728C8.68006 16.1613 8.73423 16.1258 8.79204 16.0939C8.84985 16.0618 8.9113 16.0246 8.92839 16.0112C8.99256 15.9612 9.37487 15.7184 9.38978 15.7184C9.39832 15.7184 9.45504 15.6794 9.51576 15.6319C9.57648 15.5842 9.67264 15.5216 9.72936 15.4926C9.95606 15.3769 10.0559 15.2616 10.0779 15.0901C10.1024 14.8968 10.1369 11.0341 10.114 11.0341C10.104 11.0341 10.0949 11.2347 10.094 11.4798Z" fill="#FC8C1C"/>
<path fill-rule="evenodd" clip-rule="evenodd" d="M3.13453 0.476938C3.11362 0.485279 3.10417 0.504498 3.11363 0.51973C3.12308 0.534961 3.11544 0.54729 3.0969 0.54729C3.07818 0.54729 3.07072 0.559802 3.08017 0.575033C3.08963 0.590265 3.08163 0.641218 3.06236 0.688363C3.04309 0.735508 3.02182 0.835238 3.01509 0.909945C3.00837 0.984833 2.98982 1.059 2.97401 1.07477C2.95819 1.09055 2.94528 1.17595 2.94528 1.26462C2.94528 1.37995 2.93238 1.43054 2.89984 1.44305C2.8702 1.45447 2.85439 1.50144 2.85439 1.57814C2.85439 1.64287 2.84294 1.69582 2.82912 1.69582C2.81512 1.69582 2.80185 1.74496 2.79949 1.80498C2.79731 1.86518 2.78185 1.93082 2.76513 1.95076C2.7484 1.97089 2.72913 2.04741 2.72241 2.12103C2.7155 2.19465 2.69569 2.29093 2.67805 2.33481C2.6606 2.37888 2.65442 2.42294 2.66442 2.43291C2.68405 2.4525 2.58498 2.78016 2.54516 2.82748C2.53207 2.84326 2.52117 2.90527 2.52117 2.96511C2.52117 3.02495 2.50644 3.08841 2.48862 3.10636C2.47081 3.12413 2.45372 3.20845 2.45081 3.29367C2.4479 3.3789 2.43681 3.44852 2.42627 3.44852C2.41554 3.44852 2.39755 3.52341 2.3861 3.6148C2.37464 3.70619 2.3541 3.78108 2.34028 3.78108C2.32647 3.78108 2.3072 3.84563 2.29756 3.92451C2.28084 4.05996 2.2612 4.17021 2.24739 4.20412C2.24412 4.21246 2.24302 4.23005 2.24539 4.2431C2.24757 4.25634 2.23594 4.29188 2.21957 4.32252C2.20321 4.35299 2.18376 4.44129 2.17667 4.51872C2.1694 4.59596 2.15122 4.67593 2.13613 4.69624C2.12122 4.71637 2.10505 4.77965 2.10014 4.83659C2.09523 4.89352 2.07087 4.97113 2.04614 5.00903C2.02124 5.04692 2.0107 5.09353 2.02251 5.11275C2.03433 5.13197 2.02996 5.15645 2.01251 5.16715C1.99524 5.17784 1.96597 5.28174 1.94779 5.39797C1.92961 5.51421 1.90707 5.65691 1.89762 5.71511C1.88835 5.77332 1.86908 5.84821 1.8549 5.88139C1.82745 5.94486 1.80054 6.05746 1.77346 6.22138C1.76437 6.27542 1.74528 6.31966 1.7311 6.31966C1.71674 6.31966 1.71292 6.33997 1.72237 6.36499C1.73201 6.38984 1.72819 6.41033 1.71383 6.41033C1.69947 6.41033 1.6862 6.48104 1.68456 6.56753C1.68292 6.65602 1.66638 6.72964 1.64693 6.73617C1.62657 6.74288 1.61221 6.81487 1.61221 6.90898C1.61221 6.99764 1.59948 7.07471 1.58385 7.08015C1.56821 7.08577 1.54985 7.12421 1.54313 7.16573C1.53622 7.20744 1.51586 7.27743 1.4975 7.32167C1.47932 7.36574 1.44932 7.51533 1.43114 7.65405C1.41278 7.79276 1.38951 7.92658 1.37915 7.95161C1.35752 8.00474 1.3457 8.05913 1.33334 8.16303C1.32843 8.20474 1.30734 8.2566 1.28643 8.27854C1.26571 8.30048 1.24862 8.34944 1.24862 8.38715C1.24862 8.42505 1.22172 8.53621 1.18881 8.6343C1.15591 8.73258 1.12864 8.8887 1.1281 8.98154C1.12773 9.07438 1.11791 9.15979 1.10628 9.17139C1.09483 9.18282 1.08228 9.2131 1.07847 9.23849C1.07283 9.27711 1.02556 9.42833 0.951939 9.64393C0.93376 9.69742 0.917216 9.81039 0.912308 9.91592C0.910308 9.95745 0.896855 10.006 0.882494 10.0238C0.86795 10.0418 0.851954 10.1098 0.846682 10.1752C0.84141 10.2407 0.825412 10.3132 0.810868 10.3364C0.796507 10.3596 0.779418 10.4269 0.772874 10.4858C0.766329 10.5448 0.746334 10.6108 0.728519 10.6322C0.710521 10.6537 0.703429 10.6715 0.712519 10.6715C0.72179 10.6715 0.715428 10.7156 0.698522 10.7696C0.681615 10.8236 0.661436 10.9087 0.653437 10.9586C0.645438 11.0084 0.633258 11.0764 0.62635 11.1096C0.588173 11.2931 0.562723 11.4572 0.572358 11.4572C0.578539 11.4572 0.560906 11.4917 0.533274 11.5337C0.505641 11.5758 0.49037 11.6177 0.499459 11.6266C0.508549 11.6356 0.502367 11.6862 0.485643 11.739C0.468918 11.7918 0.437106 11.9098 0.414564 12.0012C0.392203 12.0926 0.358934 12.2219 0.340755 12.2882C0.289853 12.4739 0.269858 12.8172 0.309671 12.8172C0.328213 12.8172 0.335483 12.8298 0.325848 12.8453C0.284036 12.9125 0.36748 12.898 0.451104 12.8233C0.627079 12.6665 0.703795 12.6055 0.726155 12.6054C0.738517 12.6052 0.802869 12.5441 0.86886 12.4694C0.935032 12.3947 0.997207 12.3336 1.00702 12.3336C1.01684 12.3336 1.09047 12.2726 1.17082 12.1981C1.25099 12.1234 1.3577 12.0316 1.40787 11.9941C1.45805 11.9564 1.56403 11.8645 1.64329 11.7896C1.72274 11.7149 1.85999 11.5925 1.94852 11.5176C2.03706 11.4429 2.18085 11.3156 2.26793 11.2347C2.35519 11.1538 2.4579 11.0661 2.49644 11.0394C2.53498 11.0128 2.6446 10.9156 2.74004 10.8236C2.83548 10.7317 2.95765 10.6224 3.01146 10.5809C3.06509 10.5393 3.12981 10.4815 3.15526 10.4523C3.18053 10.4233 3.2127 10.3995 3.2267 10.3995C3.2407 10.3995 3.32323 10.3281 3.41013 10.2409C3.49684 10.1535 3.60065 10.0617 3.64064 10.0369C3.73699 9.97667 3.91496 9.79752 3.91496 9.76053C3.91496 9.74421 3.92605 9.73786 3.93951 9.7462C3.95314 9.75454 4.02295 9.70776 4.09476 9.6423C4.16675 9.57666 4.21365 9.52262 4.19892 9.52208C4.18438 9.52154 4.19965 9.5054 4.2331 9.48618C4.26637 9.46696 4.29473 9.45716 4.29618 9.46442C4.29745 9.47167 4.34854 9.42489 4.4098 9.36015C4.47088 9.29542 4.52087 9.25245 4.52087 9.26423C4.52087 9.2762 4.58868 9.21346 4.67158 9.12497C4.75466 9.03649 4.83465 8.96395 4.84974 8.96395C4.87392 8.96395 4.94499 8.90176 5.20568 8.6528C5.24568 8.61472 5.2784 8.59187 5.2784 8.60203C5.2784 8.61236 5.33712 8.56195 5.40893 8.49015C5.65071 8.24826 5.91449 8.01199 5.94267 8.01199C5.95812 8.01199 6.05411 7.93075 6.15609 7.83157C6.25808 7.73238 6.3817 7.62739 6.43096 7.59838C6.48023 7.56937 6.52058 7.52821 6.52058 7.50681C6.52058 7.48541 6.53767 7.46801 6.55876 7.46801C6.57967 7.46801 6.61384 7.44081 6.63475 7.40763C6.65547 7.37426 6.69201 7.34706 6.71583 7.34706C6.73946 7.34706 6.76746 7.31986 6.77818 7.28668C6.78873 7.2535 6.81036 7.2263 6.82618 7.2263C6.84199 7.2263 6.90126 7.17861 6.95798 7.1204C7.01451 7.06219 7.0685 7.01469 7.07778 7.01469C7.08705 7.01469 7.15449 6.95685 7.22775 6.88631C7.30083 6.81559 7.42591 6.70335 7.50535 6.63698C7.74295 6.43843 7.88784 6.31023 7.99237 6.20633C8.04672 6.1523 8.09963 6.10805 8.10999 6.10805C8.12035 6.10805 8.15907 6.07977 8.19579 6.04531C8.2327 6.01086 8.33541 5.91911 8.42412 5.84132C8.51302 5.76371 8.64646 5.64222 8.72081 5.57169C8.79516 5.50097 8.86897 5.44312 8.88497 5.44312C8.90115 5.44312 8.91424 5.42971 8.91424 5.41321C8.91424 5.39671 8.96168 5.35264 9.01986 5.31511C9.07803 5.27739 9.12566 5.23206 9.12584 5.21411C9.12602 5.19616 9.15984 5.16352 9.20092 5.14158C9.24201 5.11964 9.26855 5.09008 9.25982 5.07594C9.25109 5.06179 9.26418 5.05037 9.28891 5.05037C9.31381 5.05037 9.35544 5.02897 9.38162 5.00286C9.4078 4.97675 9.42925 4.96315 9.42925 4.97258C9.42925 4.98201 9.45434 4.96605 9.48506 4.93704C9.51579 4.90785 9.53542 4.87394 9.52869 4.86143C9.52196 4.84892 9.52978 4.83876 9.54614 4.83876C9.56232 4.83876 9.62195 4.79452 9.67867 4.74048C9.8121 4.61337 10.3357 4.15534 10.5318 3.99432C10.5633 3.96839 10.6485 3.88752 10.7212 3.81444C10.7938 3.74137 10.8532 3.69096 10.8532 3.7022C10.8532 3.71363 10.883 3.69513 10.9196 3.66122C11.0045 3.58235 11.0232 3.5838 11.1081 3.67518C11.1468 3.71689 11.1892 3.7508 11.2023 3.7508C11.2154 3.7508 11.2819 3.80465 11.3502 3.87048C11.6282 4.13811 11.7355 4.2344 11.7558 4.2344C11.7962 4.2344 11.9431 4.37638 11.9233 4.39614C11.9125 4.40684 11.9273 4.41573 11.956 4.41573C11.9847 4.41573 11.9998 4.42932 11.9894 4.44582C11.9792 4.46251 11.9847 4.47611 12.0018 4.47611C12.0189 4.47611 12.08 4.52035 12.1372 4.57439C12.3217 4.74792 12.5672 4.95681 12.6966 5.05037C12.766 5.10042 12.8228 5.15481 12.8228 5.17132C12.8228 5.18782 12.844 5.20142 12.87 5.20142C12.8958 5.20142 12.9087 5.21502 12.8984 5.2317C12.8882 5.2482 12.8926 5.2618 12.9084 5.2618C12.9242 5.2618 13.0145 5.33669 13.1093 5.42807C13.2038 5.51946 13.3009 5.59435 13.3247 5.59435C13.3485 5.59435 13.3647 5.61122 13.3605 5.63207C13.3563 5.65292 13.37 5.66652 13.3909 5.66235C13.4116 5.65818 13.4287 5.6774 13.4287 5.70514C13.4287 5.73289 13.4365 5.74776 13.4461 5.73815C13.4612 5.72291 13.5992 5.83624 13.8048 6.03244C13.8395 6.0658 13.8782 6.08956 13.8908 6.08539C13.9031 6.08122 13.9135 6.09246 13.9135 6.11023C13.9135 6.15284 13.9908 6.229 14.0342 6.229C14.0531 6.229 14.0588 6.24459 14.0469 6.26381C14.0346 6.28358 14.0384 6.29065 14.0558 6.27977C14.0728 6.26943 14.1702 6.34196 14.2727 6.44097C14.3751 6.53997 14.4589 6.61341 14.4589 6.60398C14.4589 6.59455 14.4951 6.62991 14.5394 6.6825C14.5838 6.73508 14.6519 6.7902 14.691 6.80507C14.7299 6.81976 14.7617 6.85494 14.7617 6.88304C14.7617 6.91115 14.7701 6.92584 14.7801 6.91568C14.7903 6.90571 14.8181 6.91369 14.8421 6.93345C14.8999 6.98096 15.2219 7.28196 15.4191 7.47254C15.5058 7.55631 15.5911 7.61579 15.6087 7.60491C15.6265 7.59403 15.6536 7.61651 15.6691 7.65496C15.6845 7.6934 15.6982 7.71425 15.6991 7.70119C15.7002 7.68814 15.7287 7.69213 15.7625 7.71026C15.7963 7.72821 15.8181 7.75251 15.811 7.76411C15.8041 7.7759 15.8174 7.80292 15.8405 7.82431C15.8638 7.84571 15.8829 7.85532 15.8829 7.84571C15.8829 7.8361 15.9019 7.84589 15.9252 7.86729C15.9483 7.88868 15.9599 7.9186 15.9507 7.93347C15.9416 7.94852 15.9494 7.95143 15.9681 7.93982C15.987 7.92822 16.0319 7.95288 16.0683 7.99458C16.1046 8.03629 16.1483 8.06185 16.1652 8.05133C16.1837 8.03991 16.1886 8.05188 16.1774 8.08107C16.1635 8.11698 16.1715 8.12477 16.2075 8.11117C16.2399 8.09866 16.249 8.10428 16.2346 8.12731C16.2201 8.15107 16.2299 8.15596 16.265 8.14254C16.2983 8.12967 16.3097 8.13438 16.2968 8.15523C16.2844 8.175 16.2975 8.18407 16.3297 8.1779C16.3588 8.17228 16.3921 8.16666 16.4033 8.16539C16.4146 8.16412 16.4419 8.14599 16.4639 8.12532C16.486 8.10446 16.5551 8.06058 16.6177 8.02776C16.68 7.99494 16.7313 7.95904 16.7313 7.94816C16.7313 7.93728 16.7551 7.92042 16.7842 7.91062C16.848 7.88923 16.9211 7.84353 17.0687 7.73238C17.1296 7.68669 17.1878 7.64933 17.1983 7.64933C17.2227 7.64933 17.4608 7.4952 17.5135 7.44534C17.5355 7.42467 17.5653 7.40763 17.5795 7.40763C17.5939 7.40763 17.6241 7.39058 17.6468 7.36973C17.7071 7.3146 17.7991 7.2573 17.8598 7.23699C17.8889 7.2272 17.9129 7.20871 17.9129 7.19602C17.9129 7.18332 17.9367 7.16483 17.9658 7.15504C18.0296 7.13382 18.1027 7.08795 18.2503 6.97697C18.3112 6.93128 18.3712 6.89374 18.3839 6.89374C18.3967 6.89374 18.4518 6.85984 18.5063 6.81831C18.561 6.77661 18.6203 6.7427 18.6381 6.7427C18.6557 6.7427 18.6703 6.73 18.6703 6.71459C18.6703 6.699 18.6975 6.67778 18.7308 6.66726C18.7639 6.65675 18.8088 6.63191 18.8304 6.61232C18.8893 6.55883 18.9817 6.50135 19.0415 6.48141C19.0706 6.47161 19.0946 6.45167 19.0946 6.43698C19.0946 6.42229 19.1073 6.41033 19.1229 6.41033C19.1386 6.41033 19.2409 6.34904 19.3504 6.27433C19.46 6.19944 19.5583 6.13833 19.5692 6.13833C19.58 6.13833 19.6334 6.10424 19.6879 6.06272C19.7427 6.0212 19.8019 5.98711 19.8197 5.98711C19.8374 5.98711 19.8519 5.97514 19.8519 5.96063C19.8519 5.94594 19.8928 5.91711 19.9428 5.89644C19.9928 5.87577 20.0337 5.84857 20.0337 5.83588C20.0337 5.82319 20.0628 5.80524 20.0984 5.79599C20.1499 5.78257 20.1586 5.76516 20.141 5.7095C20.0953 5.56461 20.0877 5.47341 20.1211 5.47341C20.1397 5.47341 20.1548 5.44965 20.1544 5.42046C20.1541 5.37531 20.1497 5.37422 20.1246 5.41303C20.1084 5.43787 20.0933 5.44802 20.091 5.43569C20.0764 5.35754 20.0782 5.33379 20.1012 5.30278C20.1164 5.28211 20.1082 5.24965 20.0806 5.22209C20.0457 5.18745 20.0435 5.1724 20.0719 5.16098C20.1008 5.14919 20.101 5.1452 20.0726 5.14339C20.0522 5.14212 20.0435 5.12055 20.0532 5.0957C20.063 5.06996 20.0539 5.05037 20.0319 5.05037C20.0108 5.05037 20.0012 5.04257 20.0108 5.03296C20.0204 5.02335 20.015 4.9724 19.9988 4.91963C19.9826 4.86687 19.9655 4.79506 19.9608 4.76025C19.9561 4.72543 19.9424 4.68137 19.9306 4.66215C19.9186 4.64275 19.9261 4.62715 19.9472 4.62715C19.9768 4.62715 19.9772 4.61917 19.949 4.59089C19.929 4.57094 19.9126 4.51654 19.9126 4.47012C19.9126 4.42352 19.9001 4.38544 19.885 4.38544C19.8697 4.38544 19.861 4.35117 19.8657 4.3091C19.8703 4.26722 19.8623 4.22551 19.8479 4.21663C19.8336 4.20774 19.8217 4.16132 19.8217 4.11345C19.8217 4.06558 19.8081 4.01789 19.7914 4.00774C19.7747 3.99741 19.761 3.94301 19.761 3.88679C19.761 3.83058 19.7492 3.77727 19.7348 3.76839C19.7205 3.7595 19.711 3.72142 19.7139 3.68353C19.7168 3.64581 19.7078 3.58235 19.6938 3.54264C19.6799 3.50293 19.6607 3.42133 19.6512 3.36131C19.6418 3.30129 19.6254 3.23855 19.615 3.22187C19.6047 3.20537 19.5925 3.16856 19.5881 3.14009C19.5838 3.1118 19.545 2.95713 19.5021 2.79647C19.4592 2.63582 19.4307 2.48731 19.4387 2.46646C19.4467 2.44561 19.4347 2.39284 19.412 2.34932C19.3894 2.30562 19.3785 2.2699 19.3878 2.2699C19.3973 2.2699 19.3862 2.24687 19.3633 2.21876C19.3405 2.19066 19.3371 2.17688 19.356 2.18812C19.3783 2.20154 19.3753 2.16564 19.3469 2.08349C19.3231 2.01477 19.2975 1.89745 19.29 1.82257C19.2824 1.74786 19.2609 1.66826 19.2422 1.64595C19.2236 1.62347 19.2164 1.60516 19.2264 1.60516C19.2364 1.60516 19.2311 1.57016 19.2149 1.52737C19.1986 1.48457 19.1767 1.37922 19.1664 1.29309C19.156 1.20714 19.1349 1.12863 19.1195 1.11884C19.104 1.10886 19.0937 1.08855 19.0966 1.0735C19.0993 1.05827 19.0993 1.03923 19.0964 1.03089C19.0935 1.02255 19.0855 0.962531 19.0786 0.897253C19.0718 0.832157 19.054 0.770868 19.0391 0.761258C19.0244 0.751648 19.016 0.719008 19.0208 0.688546C19.0255 0.658264 19.0029 0.60713 18.971 0.575216C18.939 0.543302 18.923 0.51701 18.9355 0.516648C18.9479 0.516466 18.9377 0.503048 18.9128 0.48691C18.8661 0.456809 3.20979 0.446838 3.13453 0.476938ZM9.89355 6.41794C9.86319 6.45547 9.80283 6.50879 9.75957 6.53653C9.7163 6.56427 9.62777 6.63572 9.56269 6.69555C9.4976 6.75521 9.37799 6.86165 9.29672 6.932C9.21546 7.00236 9.09821 7.11097 9.03622 7.17335C8.97423 7.23573 8.91005 7.28668 8.89387 7.28668C8.87751 7.28668 8.82497 7.33346 8.77716 7.39058C8.72935 7.4477 8.67918 7.48777 8.66573 7.47943C8.65209 7.47109 8.63282 7.48541 8.62282 7.51134C8.61282 7.53745 8.58737 7.55867 8.5661 7.55867C8.54483 7.55867 8.51956 7.58859 8.50993 7.6254C8.50029 7.66203 8.48448 7.68415 8.47466 7.67436C8.46503 7.66475 8.40522 7.70953 8.34195 7.7739C8.27851 7.83846 8.21488 7.89104 8.20034 7.89104C8.1858 7.89104 8.14616 7.91788 8.11235 7.95052C7.85384 8.19966 7.65751 8.37917 7.56243 8.45352C7.5008 8.50157 7.41918 8.57138 7.38082 8.60892C7.34246 8.64627 7.29683 8.67692 7.27938 8.67692C7.26193 8.67692 7.25121 8.69323 7.25539 8.71318C7.25957 8.73331 7.24702 8.75035 7.22757 8.75108C7.20812 8.7518 7.16594 8.78281 7.13358 8.8198C7.10141 8.85697 7.06614 8.87855 7.05523 8.86767C7.04451 8.85697 7.0356 8.87311 7.0356 8.90357C7.0356 8.93404 7.02742 8.95072 7.01742 8.94074C7.00742 8.93059 6.94598 8.97502 6.88108 9.03902C6.81618 9.10321 6.76291 9.14873 6.76291 9.14002C6.76291 9.1315 6.69601 9.1937 6.61421 9.27837C6.5324 9.36306 6.45132 9.43232 6.43387 9.43232C6.4166 9.43232 6.38842 9.45626 6.37151 9.48527C6.35461 9.51428 6.34025 9.52879 6.3397 9.51737C6.33916 9.50594 6.25626 9.57611 6.15536 9.67349C6.05429 9.77068 5.95212 9.8579 5.92812 9.86715C5.90395 9.87621 5.88431 9.89779 5.88431 9.91502C5.88431 9.93206 5.86723 9.94639 5.8465 9.94693C5.8256 9.94729 5.74179 10.0216 5.65998 10.1121C5.57836 10.2024 5.5 10.2693 5.48583 10.2606C5.47164 10.2519 5.46019 10.2581 5.46019 10.2742C5.46019 10.2904 5.37857 10.3627 5.27895 10.4347C5.17951 10.5067 5.09006 10.5888 5.08061 10.6169C5.07098 10.6452 5.03971 10.6759 5.01098 10.6849C4.98244 10.694 4.87409 10.7796 4.77029 10.8753C4.42634 11.1923 4.38471 11.2275 4.3609 11.2211C4.34799 11.2177 4.32872 11.2389 4.31818 11.2681C4.29636 11.3286 4.18819 11.4416 4.18656 11.4055C4.18601 11.3925 4.15875 11.4137 4.12602 11.453C4.0933 11.4922 4.0664 11.5141 4.0664 11.5018C4.0664 11.4893 4.0304 11.515 3.98659 11.5589C3.9426 11.6026 3.89478 11.6385 3.88042 11.6385C3.86606 11.6385 3.8577 11.6549 3.86188 11.675C3.86606 11.6949 3.84897 11.7125 3.82407 11.7141C3.79898 11.7156 3.78189 11.7332 3.78607 11.7533C3.79025 11.7733 3.77953 11.7896 3.76226 11.7896C3.72917 11.7896 3.67464 11.836 3.43031 12.0724C3.34686 12.1531 3.27869 12.2112 3.27869 12.2012C3.27869 12.1912 3.23633 12.2271 3.1847 12.281C3.13326 12.3348 3.08545 12.3756 3.07872 12.3715C3.06672 12.364 2.94001 12.4764 2.70405 12.7038C2.63951 12.7662 2.57679 12.8172 2.5648 12.8172C2.5528 12.8172 2.50244 12.8647 2.45281 12.9225C2.40318 12.9805 2.35155 13.0211 2.3381 13.0128C2.32465 13.0046 2.26339 13.059 2.20194 13.1338C2.14049 13.2086 2.07905 13.263 2.0656 13.2547C2.05214 13.2464 2.01179 13.2804 1.97597 13.3305C1.94034 13.3805 1.89199 13.4215 1.86853 13.4215C1.84526 13.4215 1.79618 13.4618 1.75982 13.5111C1.72328 13.5602 1.68292 13.594 1.67002 13.586C1.65711 13.578 1.61021 13.6188 1.56603 13.6766C1.52186 13.7345 1.45932 13.7902 1.42733 13.8003C1.39515 13.8105 1.37679 13.8315 1.38624 13.8469C1.39588 13.8623 1.38388 13.8748 1.3597 13.8748C1.33552 13.8748 1.3068 13.9109 1.29552 13.9552C1.27516 14.0364 1.32643 14.2074 1.37151 14.2074C1.38497 14.2074 1.40369 14.2311 1.41314 14.2602C1.4226 14.2894 1.47114 14.3566 1.52131 14.4098C1.5713 14.4629 1.61221 14.5205 1.61221 14.5381C1.61221 14.5557 1.62584 14.57 1.64257 14.57C1.65911 14.57 1.67274 14.5846 1.67274 14.6023C1.67274 14.6201 1.68983 14.6527 1.71074 14.6747C1.73146 14.6968 1.78273 14.7581 1.82436 14.8108C1.86599 14.8638 1.9307 14.9434 1.96815 14.9878C2.0056 15.0322 2.03633 15.0798 2.03633 15.0932C2.03633 15.1068 2.07741 15.1523 2.1274 15.1942C2.1774 15.2362 2.21066 15.283 2.20139 15.2981C2.19194 15.3131 2.19649 15.3255 2.21121 15.3255C2.22612 15.3255 2.28193 15.3862 2.33537 15.4605C2.38882 15.5347 2.44954 15.613 2.47026 15.6343C2.49099 15.6557 2.54044 15.7206 2.58007 15.7788C2.6197 15.837 2.6806 15.9081 2.7155 15.9369C2.75022 15.9655 2.76786 15.9893 2.75441 15.9897C2.74113 15.99 2.76695 16.0245 2.81185 16.066C2.85675 16.1075 2.8853 16.1414 2.87512 16.1414C2.86475 16.1414 2.89584 16.1817 2.94383 16.2306C2.99182 16.2796 3.04 16.3474 3.05072 16.3811C3.06145 16.4149 3.08127 16.4393 3.0949 16.4355C3.10854 16.4317 3.16343 16.4671 3.21688 16.5142C3.27033 16.5612 3.32196 16.5918 3.33159 16.5822C3.34141 16.5724 3.33814 16.5646 3.3245 16.5646C3.31105 16.5646 3.35632 16.5238 3.4254 16.474C3.4943 16.4241 3.56447 16.3833 3.58138 16.3833C3.5981 16.3833 3.61192 16.3717 3.61192 16.3576C3.61192 16.3436 3.66645 16.3075 3.73317 16.2774C3.79971 16.2475 3.85424 16.2131 3.85424 16.2011C3.85424 16.1889 3.89515 16.1621 3.94514 16.1414C3.99513 16.1208 4.03603 16.0919 4.03603 16.0774C4.03603 16.0627 4.05058 16.0508 4.0684 16.0508C4.08621 16.0508 4.14547 16.0169 4.20001 15.9753C4.25473 15.9336 4.30891 15.8997 4.32036 15.8997C4.33963 15.8997 4.5147 15.7851 4.55124 15.7487C4.58178 15.718 4.68903 15.6557 4.74048 15.6384C4.76975 15.6286 4.79356 15.6109 4.79356 15.5989C4.79356 15.5867 4.84792 15.551 4.91445 15.5193C4.98081 15.4876 5.03534 15.4529 5.03553 15.4426C5.03571 15.4321 5.07679 15.4067 5.12679 15.386C5.17678 15.3653 5.21768 15.3365 5.21768 15.3218C5.21768 15.3073 5.23223 15.2954 5.25004 15.2954C5.26786 15.2954 5.32712 15.2613 5.38166 15.2197C5.43638 15.1782 5.49146 15.1441 5.504 15.1441C5.51673 15.1441 5.5769 15.1068 5.63762 15.0611C5.78524 14.9501 5.8585 14.9042 5.92212 14.8828C5.95139 14.8732 5.97521 14.8562 5.97521 14.8453C5.97521 14.8344 6.02629 14.7987 6.08883 14.7661C6.15136 14.7332 6.20917 14.6992 6.21754 14.6899C6.24517 14.6598 6.66965 14.3887 6.68947 14.3887C6.70001 14.3887 6.75855 14.3512 6.81927 14.3055C6.96688 14.1945 7.04014 14.1486 7.10377 14.1274C7.13304 14.1176 7.15685 14.1008 7.15685 14.0897C7.15685 14.0788 7.20794 14.0433 7.27047 14.0105C7.33301 13.9778 7.39082 13.9436 7.39918 13.9345C7.42681 13.9042 7.8513 13.6331 7.87111 13.6331C7.88166 13.6331 7.9402 13.5945 8.00091 13.5474C8.06163 13.5002 8.15889 13.4357 8.21724 13.4039C8.2756 13.372 8.33014 13.3383 8.3385 13.3287C8.34686 13.3191 8.4014 13.2852 8.45976 13.2531C8.51793 13.2212 8.57246 13.1876 8.58083 13.1785C8.59355 13.1649 8.89824 12.9687 9.07167 12.8625C9.09875 12.8458 9.21419 12.77 9.32817 12.694C9.44216 12.6179 9.58305 12.5296 9.6414 12.4975C9.69958 12.4656 9.75411 12.4326 9.76247 12.4242C9.861 12.3261 9.98917 12.2677 10.0388 12.2986C10.0868 12.3285 10.0906 12.3249 10.0697 12.2683C10.0564 12.2329 10.0557 12.1345 10.0679 12.0496C10.0866 11.9203 10.1353 10.6331 10.1368 10.2332C10.1442 8.1614 10.1172 6.48503 10.075 6.42102C10.0164 6.33163 9.96408 6.3309 9.89355 6.41794ZM11.8325 6.43607C11.7545 6.56065 11.8156 11.1297 11.8945 11.0601C11.9134 11.0434 12.0389 10.9593 12.1734 10.8733C12.7357 10.5132 12.9296 10.3868 12.9438 10.3711C12.9522 10.3616 13.0067 10.3279 13.0651 10.2958C13.1578 10.2447 13.6265 9.94693 13.9891 9.70848C14.0558 9.6646 14.1149 9.61855 14.1206 9.60622C14.126 9.59371 14.1435 9.58355 14.1591 9.58355C14.1958 9.58355 14.5605 9.35725 14.7112 9.24102C14.775 9.1917 14.8659 9.15 14.913 9.14836C14.9833 9.14583 14.9924 9.13749 14.9637 9.10231C14.9346 9.06677 14.9404 9.06223 14.9961 9.07656C15.0562 9.09215 15.0601 9.08726 15.0308 9.0325C15.0043 8.98318 14.9924 8.97919 14.9717 9.01273C14.9504 9.04718 14.9361 9.04447 14.8917 8.99804C14.8501 8.95471 14.8468 8.93821 14.8775 8.92696C14.9055 8.91663 14.8965 8.89741 14.8472 8.86277C14.779 8.81472 14.7665 8.80947 14.7005 8.80149C14.6834 8.79949 14.6567 8.76431 14.641 8.72333C14.6254 8.68235 14.561 8.61635 14.4978 8.57646C14.4347 8.53657 14.3373 8.46132 14.2815 8.40909C14.2255 8.35687 14.1667 8.31426 14.1509 8.31426C14.1349 8.31426 14.1295 8.30211 14.1386 8.28742C14.1477 8.27255 14.0909 8.208 14.0122 8.14381C13.9337 8.07962 13.8335 7.98968 13.7897 7.94399C13.7459 7.8983 13.701 7.86094 13.6899 7.86094C13.679 7.86094 13.6248 7.8167 13.5697 7.76266C13.3958 7.59203 13.246 7.46801 13.2138 7.46801C13.1967 7.46801 13.1911 7.4544 13.2014 7.43772C13.2118 7.42122 13.2038 7.40763 13.184 7.40763C13.164 7.40763 13.1156 7.37281 13.0762 7.33038C13.0367 7.28813 13.0045 7.26311 13.0045 7.27489C13.0045 7.28686 12.9526 7.24334 12.8891 7.17824C12.7751 7.06129 12.6633 6.9621 12.3808 6.72765C12.3006 6.6611 12.1805 6.55575 12.1138 6.49337C11.9805 6.36898 11.8867 6.34976 11.8325 6.43607Z" fill="#FCBB04"/>
<path fill-rule="evenodd" clip-rule="evenodd" d="M20.736 8.21375C20.7413 8.25817 20.766 8.30006 20.7911 8.30677C20.8204 8.31456 20.8247 8.31003 20.8033 8.29389C20.7849 8.28029 20.7724 8.23841 20.7755 8.20105C20.7785 8.16352 20.7687 8.13306 20.7536 8.13306C20.7387 8.13306 20.7307 8.16932 20.736 8.21375ZM20.7936 8.36896C20.7922 8.39072 20.7776 8.40033 20.7611 8.39018C20.7444 8.37966 20.7387 8.39108 20.7482 8.41574C20.7591 8.44403 20.7398 8.46779 20.6947 8.48193C20.6562 8.4939 20.5762 8.54159 20.5173 8.58782C20.4584 8.63388 20.3595 8.69589 20.2977 8.72527C20.2357 8.75483 20.1852 8.78837 20.1852 8.79998C20.1852 8.81158 20.1612 8.82899 20.1321 8.83878C20.0805 8.85619 19.973 8.91857 19.9427 8.94903C19.9343 8.95737 19.8661 9.00379 19.7912 9.05202C19.7163 9.10025 19.618 9.16481 19.5727 9.19545C19.5276 9.2261 19.4776 9.25112 19.4616 9.25112C19.4458 9.25112 19.4282 9.26145 19.4226 9.27378C19.4089 9.30479 19.2531 9.41159 19.1275 9.47633C19.0708 9.5057 19.0094 9.54251 18.9912 9.55811C18.8676 9.66454 18.3696 9.96228 18.3345 9.95068C18.2987 9.93889 18.2993 9.94633 18.3369 9.9942C18.4002 10.0747 18.4353 10.0963 18.4689 10.0756C18.4847 10.0658 18.4891 10.072 18.4783 10.0892C18.4676 10.1066 18.4791 10.1376 18.504 10.1581C18.5287 10.1786 18.5491 10.1886 18.5491 10.1802C18.5491 10.1719 18.6083 10.2212 18.681 10.2899C18.8057 10.4078 18.9443 10.5284 19.3353 10.8589C19.4278 10.9371 19.5473 11.0424 19.6009 11.0932C19.6547 11.1438 19.7131 11.1853 19.7307 11.1853C19.7483 11.1853 19.7702 11.2046 19.7792 11.2279C19.7883 11.2513 19.8287 11.2789 19.8692 11.2889C19.9096 11.299 19.9427 11.3208 19.9427 11.3371C19.9427 11.41 20.1608 11.3306 20.2761 11.2156C20.2844 11.2073 20.3388 11.1743 20.3971 11.1424C20.4555 11.1103 20.51 11.0747 20.5184 11.0633C20.5268 11.0521 20.5813 11.0185 20.6397 10.989C20.6978 10.9594 20.7953 10.8963 20.856 10.8488C20.9167 10.8011 20.9752 10.7623 20.986 10.7623C21.0618 10.7623 21.251 10.5824 21.2314 10.5289C21.2239 10.5088 21.231 10.4841 21.2468 10.4744C21.2628 10.4646 21.2759 10.4731 21.2759 10.4936C21.2759 10.5139 21.2837 10.5228 21.2932 10.5132C21.3028 10.5037 21.291 10.4571 21.267 10.41C21.2428 10.3627 21.2276 10.2974 21.2327 10.2646C21.2379 10.2319 21.229 10.1895 21.213 10.1703C21.197 10.151 21.1925 10.113 21.203 10.0858C21.2134 10.0584 21.2048 10.0154 21.1838 9.99021C21.1627 9.96482 21.1467 9.9039 21.1481 9.85457C21.1494 9.80525 21.1401 9.765 21.1274 9.765C21.1147 9.765 21.1029 9.74795 21.1012 9.7271C21.0936 9.62773 21.0691 9.47324 21.0545 9.43244C21.0456 9.4076 21.0291 9.3329 21.018 9.26653C21.0069 9.20017 20.99 9.13326 20.9803 9.11802C20.9709 9.10261 20.9592 9.05492 20.9543 9.01195C20.9418 8.90206 20.7965 8.32091 20.7936 8.36896ZM16.7926 10.6036C16.7944 10.6452 16.8766 10.736 16.89 10.7112C16.8973 10.6977 16.8782 10.6629 16.8475 10.6337C16.8168 10.6047 16.792 10.5911 16.7926 10.6036ZM16.9231 10.7754C16.9322 10.7993 16.9304 10.8243 16.9187 10.8308C16.9071 10.8375 16.9135 10.8394 16.9326 10.835C17.018 10.8152 16.992 10.8667 16.8893 10.9208C16.7742 10.9813 16.5746 11.1068 16.2767 11.3057C16.1849 11.367 16.0963 11.4227 16.0796 11.4296C16.0631 11.4367 15.9505 11.5068 15.8296 11.5857C15.7089 11.6648 15.5111 11.7939 15.3904 11.8729C15.2695 11.9518 15.157 12.0216 15.1405 12.028C15.1237 12.0343 15.0896 12.0572 15.0647 12.0787C15.0396 12.1003 14.985 12.1362 14.9434 12.1583C14.873 12.1959 14.7547 12.2717 14.2011 12.6334C14.0844 12.7096 13.9754 12.7788 13.9588 12.7872C13.9421 12.7955 13.8466 12.8554 13.7467 12.9203C13.6467 12.985 13.4967 13.0813 13.4134 13.1342C13.33 13.1872 13.1597 13.2974 13.0346 13.379C12.9097 13.4606 12.7937 13.5342 12.7772 13.5428C12.7604 13.5511 12.665 13.6109 12.565 13.6757C12.465 13.7406 12.3083 13.8409 12.2165 13.8987C12.1249 13.9567 12.0136 14.0289 11.9695 14.0594C11.8384 14.1491 11.8251 14.096 11.8129 13.4345C11.8069 13.1034 11.8071 13.5667 11.8135 14.4643C11.8275 16.4589 11.8404 16.6322 11.968 16.5408C11.9964 16.5205 12.04 16.4948 12.0651 16.4835C12.09 16.4725 12.1173 16.4554 12.1256 16.446C12.134 16.4364 12.1954 16.3932 12.262 16.3501C12.3287 16.3067 12.4856 16.205 12.6105 16.124C12.7355 16.0429 12.8717 15.9582 12.9133 15.9361C12.955 15.9138 13.0095 15.8779 13.0346 15.8563C13.0597 15.8347 13.0937 15.8119 13.1104 15.8055C13.1271 15.7992 13.2362 15.7317 13.3527 15.6554C13.4694 15.5793 13.6672 15.4501 13.7921 15.3684C13.9172 15.2868 14.033 15.2142 14.0497 15.2074C14.0663 15.2005 14.155 15.1446 14.2466 15.0835C14.3382 15.0222 14.4882 14.9247 14.5798 14.8666C14.6716 14.8086 14.8489 14.6944 14.9738 14.6128C15.0988 14.5312 15.2146 14.4587 15.2314 14.4518C15.2479 14.4449 15.3366 14.3892 15.4282 14.3279C15.5199 14.2666 15.6767 14.1649 15.7767 14.1016C15.9447 13.9954 16.303 13.7649 16.5948 13.5758C16.6613 13.5326 16.7204 13.4871 16.726 13.4746C16.7315 13.4621 16.7497 13.4519 16.7664 13.4519C16.7829 13.4519 16.8738 13.4022 16.9684 13.3415C17.2178 13.181 17.6363 12.9112 17.7764 12.8204C17.843 12.777 17.9021 12.7315 17.9077 12.719C17.9131 12.7067 17.9308 12.6963 17.9468 12.6963C17.9795 12.6963 18.2867 12.5059 18.4782 12.3669C18.6049 12.2749 18.6343 12.1524 18.5296 12.1524C18.5062 12.1524 18.474 12.1184 18.4582 12.0769C18.4423 12.0354 18.4154 12.0013 18.3987 12.0013C18.3818 12.0013 18.3013 11.9368 18.2196 11.8577C18.0569 11.7005 17.6755 11.3563 17.5376 11.2423C17.4896 11.2027 17.3825 11.1048 17.2996 11.0249C17.2167 10.9449 17.1413 10.8871 17.132 10.8963C17.1227 10.9054 17.0962 10.8858 17.0729 10.8528C17.0496 10.8196 17.0102 10.7924 16.9851 10.7924C16.96 10.7924 16.948 10.7788 16.9584 10.7623C16.9686 10.7456 16.9611 10.732 16.9417 10.732C16.9222 10.732 16.9138 10.7516 16.9231 10.7754ZM10.0957 14.611C10.0957 15.2228 10.0519 15.3281 9.72925 15.4928C9.67253 15.5218 9.57636 15.5843 9.51564 15.632C9.45492 15.6795 9.39821 15.7185 9.38966 15.7185C9.37475 15.7185 8.99244 15.9613 8.92827 16.0114C8.91118 16.0248 8.84974 16.0619 8.79193 16.094C8.73412 16.126 8.67994 16.1615 8.67158 16.1729C8.66322 16.1843 8.60868 16.2177 8.55051 16.2473C8.49216 16.2768 8.39471 16.3399 8.334 16.3876C8.27328 16.4351 8.21474 16.4741 8.20402 16.4741C8.18584 16.4741 8.00859 16.5911 7.97478 16.6255C7.96641 16.6339 7.90842 16.6676 7.84607 16.7002C7.78353 16.733 7.73245 16.7688 7.73245 16.7796C7.73245 16.7905 7.70845 16.8074 7.67936 16.8172C7.6221 16.8364 7.51448 16.9008 7.48994 16.9307C7.48157 16.9408 7.42704 16.9733 7.36887 17.0029C7.31051 17.0324 7.21307 17.0955 7.15235 17.143C7.09163 17.1907 7.03219 17.2295 7.02037 17.2295C7.00855 17.2295 6.94911 17.267 6.88839 17.3127C6.82767 17.3584 6.73023 17.4219 6.67187 17.454C6.61352 17.4859 6.55916 17.52 6.5508 17.5294C6.52481 17.5593 6.41682 17.6234 6.36137 17.642C6.33229 17.6516 6.30829 17.6687 6.30829 17.6796C6.30829 17.6904 6.25721 17.7262 6.19467 17.7588C6.13232 17.7916 6.07432 17.8252 6.06596 17.8337C6.03215 17.8681 5.8549 17.9851 5.83672 17.9851C5.826 17.9851 5.76746 18.023 5.70674 18.0692C5.64602 18.1157 5.54513 18.1798 5.48278 18.2121C5.42024 18.2444 5.36916 18.2783 5.36916 18.2874C5.36916 18.2964 5.31789 18.3307 5.25554 18.3635C5.193 18.3964 5.12519 18.439 5.10465 18.4582C5.08411 18.4774 5.0263 18.5113 4.97594 18.5336C4.92558 18.5559 4.88432 18.5844 4.88432 18.5969C4.88432 18.6094 4.86305 18.6197 4.83705 18.6197C4.80906 18.6197 4.79869 18.6056 4.81142 18.5849C4.82433 18.5643 4.81978 18.5581 4.80069 18.5699C4.78288 18.5809 4.76142 18.5728 4.75288 18.5519C4.74452 18.5311 4.7367 18.5276 4.73561 18.5441C4.73452 18.5608 4.78797 18.6328 4.85432 18.7042C4.92086 18.7755 4.97521 18.8421 4.97521 18.8518C4.97521 18.8618 5.04775 18.9599 5.13646 19.0698C5.22517 19.1797 5.31044 19.2914 5.32589 19.3182C5.35607 19.3706 5.53549 19.5904 5.69474 19.7703C5.74892 19.8312 5.79327 19.8965 5.79327 19.9151C5.79327 19.9336 5.82054 19.9659 5.85381 19.9868C5.88726 20.0074 5.91453 20.0424 5.91453 20.0644C5.91453 20.0861 5.92598 20.097 5.94016 20.0883C5.95434 20.0796 5.98416 20.1063 6.00633 20.1478C6.08123 20.2872 6.21885 20.2655 6.41864 20.0827C6.43845 20.0646 6.49681 20.0323 6.54807 20.0111C6.59952 19.9897 6.6417 19.9619 6.6417 19.9494C6.6417 19.9367 6.66551 19.9182 6.6946 19.9086C6.74368 19.8921 6.82022 19.8473 6.89748 19.7897C7.00146 19.7121 7.35159 19.4961 7.37323 19.4961C7.38741 19.4961 7.39904 19.4841 7.39904 19.4696C7.39904 19.4549 7.43994 19.4261 7.48994 19.4054C7.53993 19.3848 7.58083 19.3581 7.58083 19.346C7.58083 19.3338 7.63537 19.2995 7.70209 19.2694C7.76881 19.2395 7.82334 19.2051 7.82334 19.1929C7.82334 19.1808 7.84716 19.1628 7.87624 19.153C7.92533 19.1365 8.00186 19.0917 8.07912 19.0341C8.17711 18.9612 8.53269 18.7407 8.55233 18.7407C8.56524 18.7407 8.58032 18.7304 8.58578 18.718C8.59977 18.6865 8.75648 18.5795 8.88373 18.5144C8.94209 18.4847 8.99663 18.4518 9.00499 18.4417C9.01335 18.4315 9.04735 18.4067 9.08061 18.3866C9.11406 18.3663 9.25041 18.2805 9.38366 18.1958C9.51691 18.1111 9.65271 18.0257 9.68544 18.006C9.71798 17.9862 9.76324 17.953 9.78597 17.9322C9.80869 17.9115 9.8365 17.8943 9.84796 17.8939C9.91304 17.8924 10.0656 17.7117 10.0676 17.6335C10.0694 17.5579 10.073 17.5545 10.0957 17.6074C10.1108 17.6422 10.1225 16.9668 10.1232 16.0132C10.1241 15.1031 10.1181 14.3586 10.1101 14.3586C10.1023 14.3586 10.0957 14.4721 10.0957 14.611Z" fill="#FC7026"/>
<path fill-rule="evenodd" clip-rule="evenodd" d="M10.1402 8.51068C10.1402 9.40825 10.144 9.77109 10.1487 9.31705C10.1535 8.86282 10.1535 8.12845 10.1487 7.6851C10.144 7.24158 10.1402 7.61312 10.1402 8.51068ZM20.947 8.91867C20.947 8.94351 20.9586 8.9912 20.973 9.02438C20.9893 9.06246 20.999 9.06809 20.999 9.03962C20.999 9.01459 20.9873 8.96708 20.973 8.93372C20.9566 8.89564 20.947 8.89002 20.947 8.91867ZM21.0059 9.19066C21.0068 9.2155 21.0193 9.26319 21.0335 9.29637L21.0597 9.35694L21.0613 9.29637C21.0622 9.26319 21.0497 9.2155 21.0335 9.19066C21.0075 9.15041 21.0044 9.15041 21.0059 9.19066ZM17.8825 9.62313C17.8825 9.62838 17.9269 9.67263 17.981 9.72141L18.0794 9.81026L17.9905 9.71198C17.9076 9.62041 17.8825 9.59992 17.8825 9.62313ZM10.1375 10.6563C10.1375 10.8393 10.1425 10.9102 10.1485 10.8139C10.1545 10.7178 10.1545 10.5682 10.1484 10.4815C10.1422 10.3949 10.1373 10.4736 10.1375 10.6563ZM18.9336 10.5631C18.9805 10.6034 19.024 10.6308 19.0305 10.6244C19.0453 10.6097 18.9067 10.4926 18.8731 10.4911C18.8596 10.4906 18.8869 10.5231 18.9336 10.5631ZM19.0642 10.6507C19.0642 10.656 19.1085 10.7002 19.1627 10.749L19.261 10.8377L19.1721 10.7396C19.0892 10.648 19.0642 10.6273 19.0642 10.6507ZM21.3696 10.7597C21.368 10.7833 21.4 10.9329 21.4404 11.0921C21.4809 11.2514 21.5223 11.4206 21.5327 11.4683C21.5431 11.516 21.5585 11.5481 21.5671 11.5396C21.584 11.5227 21.4969 11.0728 21.4674 11.0255C21.4576 11.0096 21.4322 10.9336 21.4109 10.8567C21.3896 10.7798 21.3711 10.7361 21.3696 10.7597ZM19.4906 11.0523C19.531 11.0955 19.6186 11.1726 19.6853 11.2235C19.7595 11.2805 19.7361 11.2502 19.6246 11.145C19.4346 10.966 19.3647 10.9176 19.4906 11.0523ZM10.1389 11.6386C10.1389 11.9793 10.1433 12.1187 10.1487 11.9483C10.154 11.778 10.154 11.4991 10.1487 11.3289C10.1433 11.1584 10.1389 11.2979 10.1389 11.6386ZM19.9415 11.4346C20.0671 11.568 20.0944 11.592 20.0944 11.5693C20.0944 11.5644 20.0295 11.4999 19.9504 11.4257L19.8064 11.291L19.9415 11.4346ZM11.7698 11.5329C11.7701 11.5992 11.7763 11.623 11.7836 11.5853C11.7909 11.5477 11.7907 11.4933 11.783 11.4645C11.7754 11.4355 11.7696 11.4663 11.7698 11.5329ZM17.9583 11.5942C18.2606 11.8752 18.3428 11.945 18.3555 11.9323C18.3632 11.9249 18.2496 11.8203 18.1032 11.7C17.9569 11.5798 17.8916 11.5321 17.9583 11.5942ZM20.1271 11.5992C20.1307 11.6346 20.4609 11.9176 20.4781 11.9004C20.4861 11.8924 20.4289 11.8268 20.3507 11.7546C20.1967 11.6125 20.1233 11.5613 20.1271 11.5992ZM21.5654 11.631C21.5716 11.6602 21.6005 11.7927 21.6294 11.9256C21.6585 12.0587 21.6836 12.1742 21.6852 12.1826C21.687 12.1909 21.6992 12.2429 21.7123 12.2982C21.7643 12.5167 21.7879 12.7887 21.7529 12.7672C21.7403 12.7594 21.7221 12.7733 21.7125 12.7983C21.689 12.8595 21.5407 12.7938 21.3798 12.6509C21.1273 12.4268 20.9232 12.2509 20.8803 12.2206C20.851 12.2 20.7617 12.1224 20.6817 12.048C20.6018 11.9737 20.5294 11.9198 20.521 11.9282C20.5058 11.9434 20.6003 12.0319 20.8514 12.2375C20.9262 12.2986 21.0081 12.3717 21.0331 12.3996C21.174 12.5561 21.6281 12.9079 21.6892 12.9079C21.8399 12.9079 21.8598 12.6843 21.7483 12.2429C21.7083 12.0852 21.6598 11.8779 21.6405 11.7827C21.6211 11.6874 21.5938 11.6023 21.5798 11.5938C21.5658 11.5851 21.5592 11.6019 21.5654 11.631ZM11.7698 11.8955C11.7701 11.9619 11.7763 11.9856 11.7836 11.9479C11.7909 11.9104 11.7907 11.856 11.783 11.8272C11.7754 11.7981 11.7696 11.829 11.7698 11.8955ZM18.5793 12.1497C18.5793 12.1679 18.591 12.1826 18.6053 12.1826C18.6195 12.1826 18.6649 12.2132 18.7064 12.2506C18.7478 12.2879 18.8146 12.3458 18.8547 12.3789L18.9278 12.4395L18.8673 12.3681C18.7773 12.2622 18.5793 12.1122 18.5793 12.1497ZM10.1304 16.0207C10.1246 18.0733 10.1224 19.8578 10.1255 19.986C10.1315 20.2291 10.1091 20.3212 10.0622 20.2473C10.0431 20.2173 10.036 20.2244 10.0357 20.2739C10.0353 20.3205 9.99512 20.3666 9.9064 20.4217C9.62517 20.5969 9.44392 20.72 9.43429 20.7421C9.42865 20.755 9.41102 20.7653 9.39484 20.7653C9.37884 20.7653 9.28795 20.8163 9.19287 20.8786C9.09797 20.9408 9.00653 20.9987 8.98981 21.0072C8.96181 21.0214 8.88419 21.071 8.42934 21.3662C8.33772 21.4257 8.2581 21.4848 8.25264 21.4977C8.24701 21.5104 8.22665 21.5213 8.20719 21.5216C8.18774 21.5222 8.02177 21.6232 7.83852 21.7461C7.65527 21.8691 7.50093 21.9579 7.49566 21.9434C7.49039 21.9291 7.46948 21.9236 7.44912 21.9312C7.40258 21.9492 7.27169 21.8239 7.19607 21.689C7.17825 21.6573 7.13826 21.6277 7.10717 21.6234C7.05863 21.6165 7.057 21.6205 7.09627 21.6513C7.12117 21.671 7.17807 21.7416 7.22261 21.8079C7.32696 21.9641 7.44676 22.0981 7.4653 22.0794C7.47348 22.0714 7.48003 22.0827 7.48003 22.1042C7.48003 22.1385 7.72963 22.476 8.18702 23.0598C8.26191 23.1556 8.4517 23.4025 8.60859 23.6089C8.89309 23.9832 8.93054 24.0312 9.15833 24.3164C9.29831 24.4916 9.27922 24.4671 9.48701 24.7395C9.9124 25.297 9.9404 25.3288 10.0091 25.3288C10.1631 25.3288 10.1571 25.6111 10.1487 18.7036C10.1429 13.7567 10.1385 13.1427 10.1304 16.0207ZM19.0036 12.5138C19.0036 12.53 19.0342 12.5592 19.0718 12.5788C19.1396 12.6143 19.1396 12.6141 19.0822 12.5496C19.018 12.4776 19.0036 12.4711 19.0036 12.5138ZM19.3759 12.8399C19.4628 12.9187 19.5385 12.9938 19.5441 13.0065C19.5495 13.019 19.5837 13.0437 19.6197 13.0609C19.6557 13.0783 19.5899 13.0036 19.4732 12.8952C19.3565 12.7867 19.2514 12.6975 19.2396 12.6972C19.228 12.6966 19.2892 12.761 19.3759 12.8399ZM19.8415 13.2598C19.9273 13.3405 20.0324 13.4337 20.0749 13.4669C20.1173 13.5003 20.1527 13.5443 20.1535 13.5652C20.1544 13.586 20.1753 13.6029 20.2004 13.6029C20.2253 13.6029 20.2458 13.6227 20.2458 13.6468C20.2458 13.6709 20.2694 13.7037 20.2982 13.7199C20.3445 13.7458 20.3411 13.7534 20.2678 13.7866C20.2224 13.8072 20.1853 13.8341 20.1853 13.8461C20.1853 13.858 20.1613 13.876 20.1322 13.8856C20.0807 13.903 19.9735 13.9654 19.9428 13.9958C19.9344 14.0042 19.8799 14.0372 19.8217 14.0691C19.7633 14.1012 19.7088 14.1351 19.7004 14.1447C19.6735 14.1755 19.4914 14.2981 19.4725 14.2981C19.4623 14.2981 19.4094 14.332 19.3547 14.3735C19.3001 14.4152 19.246 14.4491 19.2343 14.4491C19.2132 14.4491 19.0325 14.5694 19.0036 14.6026C18.9953 14.6122 18.9407 14.6461 18.8824 14.6782C18.824 14.7101 18.7695 14.7431 18.7611 14.7514C18.7387 14.7737 18.6313 14.8395 18.5793 14.8628C18.5544 14.8738 18.5271 14.8907 18.5188 14.9003C18.4917 14.9311 18.3097 15.0535 18.2908 15.0535C18.2806 15.0535 18.2277 15.0876 18.173 15.1291C18.1185 15.1706 18.0643 15.2047 18.0527 15.2047C18.0316 15.2047 17.8509 15.325 17.822 15.3581C17.8136 15.3676 17.7591 15.4017 17.7007 15.4336C17.6424 15.4657 17.5878 15.4985 17.5795 15.5068C17.5571 15.5293 17.4497 15.595 17.3977 15.6182C17.3728 15.6294 17.3455 15.6463 17.3371 15.6559C17.3101 15.6867 17.1281 15.8091 17.1092 15.8091C17.099 15.8091 17.0461 15.8432 16.9914 15.8847C16.9368 15.9262 16.8774 15.9601 16.8596 15.9601C16.8418 15.9601 16.8225 15.9707 16.817 15.9835C16.8021 16.0176 16.4689 16.2321 16.4305 16.2321C16.4125 16.2321 16.3978 16.2443 16.3978 16.259C16.3978 16.2737 16.374 16.2936 16.3449 16.3034C16.2911 16.3214 16.1833 16.3848 16.1555 16.4147C16.1195 16.4535 15.7003 16.7157 15.6743 16.7157C15.6585 16.7157 15.6408 16.7263 15.6354 16.7389C15.6238 16.7658 15.2913 16.9877 15.2629 16.9877C15.2525 16.9877 15.2274 17.0022 15.2074 17.02C15.1382 17.0811 14.5192 17.4713 14.4916 17.4713C14.4763 17.4713 14.4592 17.4817 14.4537 17.4945C14.4421 17.5212 14.1096 17.7433 14.0812 17.7433C14.0709 17.7433 14.0458 17.7576 14.0258 17.7754C13.9471 17.8445 13.3408 18.2267 13.3099 18.2267C13.2919 18.2267 13.2768 18.2371 13.2763 18.2494C13.2757 18.2619 13.1661 18.3401 13.0325 18.4233C12.8991 18.5063 12.6635 18.6559 12.5091 18.7557C12.3548 18.8554 12.151 18.9869 12.0563 19.048C11.9357 19.1256 11.8772 19.1482 11.8614 19.1234C11.8488 19.104 11.8287 18.2518 11.8163 17.2294C11.8041 16.2073 11.7894 15.2961 11.7838 15.2047C11.7779 15.1132 11.7743 17.333 11.7754 20.1374L11.7774 25.2365L11.845 25.3039L11.9128 25.3716L11.9961 25.3096C12.0417 25.2755 12.1204 25.1922 12.1706 25.1246C12.2421 25.0287 12.6425 24.5221 12.7858 24.3465C12.8153 24.3104 13.0719 23.9772 13.3912 23.5608C13.5184 23.3946 13.6984 23.1626 13.7907 23.0453C13.8833 22.928 13.9929 22.786 14.0345 22.7298C14.0763 22.6736 14.1856 22.5314 14.2776 22.4141C14.3698 22.2968 14.4719 22.1657 14.5048 22.1225C14.5379 22.0794 14.6466 21.9383 14.7466 21.8092C14.8466 21.6799 14.9573 21.5343 14.9928 21.4859C15.0282 21.4373 15.0967 21.3541 15.1453 21.3006C15.1938 21.2473 15.2738 21.1476 15.3232 21.079C15.3727 21.0103 15.4905 20.854 15.585 20.7314C15.6796 20.6088 15.8535 20.3793 15.9719 20.2213C16.0902 20.0636 16.2242 19.889 16.2697 19.8337C16.3742 19.7065 16.4767 19.5749 16.761 19.2034C16.8859 19.0402 17.0699 18.803 17.1701 18.6762C17.2702 18.5495 17.4068 18.3745 17.4735 18.2875C17.5402 18.2006 17.6107 18.1125 17.6302 18.0918C17.6498 18.0713 17.7044 18.0001 17.7514 17.9337C17.8603 17.7801 18.0592 17.5196 18.2912 17.2256C18.3913 17.0989 18.5455 16.9016 18.6337 16.7874C18.7218 16.6731 18.9096 16.4301 19.0511 16.2474C19.1925 16.0644 19.3552 15.8537 19.4127 15.7788C19.5883 15.5502 20.2489 14.6983 20.4645 14.4225C20.7465 14.0618 20.7455 14.01 20.4534 13.7501C20.3343 13.6442 20.1991 13.5237 20.1529 13.4821C19.7857 13.1516 19.5394 12.9759 19.8415 13.2598ZM5.30852 19.345C5.34416 19.3948 5.38015 19.4356 5.38851 19.4356C5.39688 19.4356 5.37452 19.3948 5.33888 19.345C5.30325 19.2951 5.26726 19.2543 5.25908 19.2543C5.25072 19.2543 5.27307 19.2951 5.30852 19.345ZM5.71556 19.8663C5.76228 19.9287 5.80627 19.9796 5.81318 19.9796C5.8399 19.9796 5.76537 19.8703 5.69974 19.813C5.6432 19.7638 5.64611 19.7735 5.71556 19.8663ZM6.00115 20.244C6.03915 20.298 6.07659 20.3423 6.08441 20.3423C6.11059 20.3423 6.03951 20.2319 5.98552 20.1887C5.94771 20.1582 5.95207 20.1744 6.00115 20.244ZM6.23512 20.5392C6.27947 20.597 6.3202 20.6446 6.32583 20.6446C6.35128 20.6446 6.22821 20.4623 6.19367 20.4491C6.17222 20.4407 6.19094 20.4814 6.23512 20.5392ZM6.41618 20.7729C6.4649 20.827 6.51526 20.8841 6.5278 20.8999C6.54234 20.9178 6.55089 20.9176 6.55089 20.899C6.55089 20.8634 6.38182 20.6747 6.35001 20.6747C6.33747 20.6747 6.36728 20.7189 6.41618 20.7729ZM6.67287 21.0979C6.74268 21.1893 6.81431 21.2694 6.83194 21.2758C6.86884 21.2894 6.84921 21.2641 6.66996 21.0676L6.54598 20.9316L6.67287 21.0979ZM6.97119 21.4814C6.9901 21.518 7.02009 21.5566 7.03773 21.5675C7.09808 21.6047 7.08445 21.5664 7.01046 21.4906C6.94356 21.4223 6.93992 21.4214 6.97119 21.4814Z" fill="#FC3146"/>
<path fill-rule="evenodd" clip-rule="evenodd" d="M21.146 9.91664C21.1549 9.95 21.1764 9.98627 21.1938 9.99715C21.2138 10.0095 21.2182 9.99715 21.2053 9.96397C21.1942 9.93495 21.1851 9.89869 21.1851 9.88346C21.1851 9.86822 21.1728 9.85571 21.1577 9.85571C21.1426 9.85571 21.1373 9.88309 21.146 9.91664ZM21.2286 10.2962C21.2351 10.3281 21.2493 10.3767 21.2602 10.404C21.2711 10.4316 21.2662 10.4626 21.2491 10.4731C21.232 10.4836 21.224 10.5089 21.2315 10.529C21.2511 10.5825 21.0619 10.7623 20.9861 10.7623C20.9753 10.7623 20.9168 10.8012 20.8561 10.8488C20.7954 10.8963 20.6979 10.9595 20.6397 10.989C20.5814 11.0186 20.5269 11.0521 20.5185 11.0633C20.5101 11.0748 20.4556 11.1103 20.3972 11.1424C20.3389 11.1743 20.2845 11.2073 20.2762 11.2157C20.1609 11.3306 19.9428 11.41 19.9428 11.3372C19.9428 11.3208 19.9097 11.2991 19.8693 11.2889C19.8288 11.2789 19.7884 11.2514 19.7793 11.228C19.7702 11.2046 19.7457 11.1854 19.7246 11.1854C19.6864 11.1854 20.0555 11.5352 20.1549 11.5934C20.2031 11.6217 20.5425 11.9172 20.7321 12.0962C20.7785 12.1399 20.8428 12.1943 20.875 12.217C20.9223 12.2503 21.12 12.4206 21.3798 12.651C21.5407 12.7939 21.689 12.8596 21.7125 12.7985C21.7221 12.7734 21.7403 12.7595 21.7529 12.7673C21.7879 12.7889 21.7643 12.5169 21.7123 12.2984C21.6992 12.2431 21.687 12.191 21.6852 12.1827C21.6836 12.1743 21.6596 12.0655 21.632 11.941C21.6043 11.8162 21.5745 11.6735 21.5658 11.6237C21.5393 11.473 21.4996 11.3043 21.4271 11.0343C21.3893 10.8929 21.36 10.746 21.3624 10.7078C21.3646 10.6695 21.3542 10.6456 21.3391 10.6548C21.3242 10.6641 21.3186 10.6459 21.3269 10.6146C21.3351 10.5832 21.3271 10.5484 21.3089 10.5373C21.2907 10.5261 21.276 10.5034 21.276 10.4867C21.276 10.47 21.2891 10.4646 21.3051 10.4744C21.3218 10.4849 21.3202 10.4506 21.3009 10.3932C21.2626 10.2786 21.2109 10.2093 21.2286 10.2962ZM19.5186 11.0218C19.5186 11.0394 19.5528 11.0858 19.5944 11.125C19.6361 11.164 19.6701 11.1861 19.6701 11.1741C19.6701 11.1624 19.6361 11.1159 19.5944 11.071C19.5528 11.0262 19.5186 11.0041 19.5186 11.0218ZM18.4582 12.0918C18.4582 12.1285 18.5431 12.1684 18.568 12.1435C18.5771 12.1344 18.5561 12.112 18.5213 12.0935C18.4775 12.0701 18.4582 12.0695 18.4582 12.0918ZM18.5902 12.2278C18.6017 12.2574 18.5635 12.3051 18.4799 12.3658C18.2874 12.5056 17.9798 12.6964 17.9469 12.6964C17.9309 12.6964 17.9132 12.7067 17.9078 12.719C17.9021 12.7316 17.8431 12.7771 17.7765 12.8204C17.6364 12.9113 17.2179 13.1811 16.9685 13.3415C16.8739 13.4023 16.783 13.452 16.7665 13.452C16.7498 13.452 16.7316 13.4621 16.7261 13.4746C16.7205 13.4871 16.6614 13.5327 16.5949 13.5758C16.3031 13.7649 15.9448 13.9954 15.7768 14.1017C15.6768 14.1649 15.5199 14.2667 15.4283 14.328C15.3367 14.3893 15.248 14.4449 15.2314 14.4518C15.2147 14.4587 15.0989 14.5312 14.9738 14.6128C14.849 14.6944 14.6717 14.8087 14.5799 14.8667C14.4883 14.9247 14.3383 15.0223 14.2467 15.0836C14.1551 15.1447 14.0663 15.2005 14.0498 15.2074C14.0331 15.2143 13.9205 15.2845 13.7998 15.3635C13.6789 15.4424 13.4813 15.5717 13.3604 15.6506C13.2396 15.7294 13.1272 15.7993 13.1105 15.8056C13.0938 15.8119 13.0598 15.8348 13.0347 15.8564C13.0096 15.8779 12.955 15.9138 12.9134 15.9362C12.8718 15.9583 12.7356 16.043 12.6106 16.124C12.4857 16.2051 12.3288 16.3068 12.2621 16.3501C12.1955 16.3935 12.1364 16.439 12.1308 16.4515C12.1253 16.4638 12.103 16.4742 12.0815 16.4742C12.0599 16.4742 12.0254 16.4945 12.0046 16.5195C11.8836 16.6649 11.8574 16.5761 11.8261 15.9149C11.8101 15.5755 11.8058 15.9498 11.813 17.0181C11.8288 19.3422 11.8123 19.2051 12.0563 19.0481C12.151 18.987 12.3548 18.8555 12.5091 18.7558C12.6635 18.6561 12.8991 18.5065 13.0325 18.4234C13.1661 18.3402 13.2757 18.262 13.2763 18.2495C13.2768 18.2372 13.2919 18.2269 13.3099 18.2269C13.3408 18.2269 13.9471 17.8446 14.0258 17.7755C14.0458 17.7578 14.0709 17.7434 14.0812 17.7434C14.1096 17.7434 14.4421 17.5213 14.4537 17.4947C14.4592 17.4818 14.4763 17.4715 14.4916 17.4715C14.5192 17.4715 15.1382 17.0812 15.2074 17.0201C15.2274 17.0024 15.2525 16.9879 15.2629 16.9879C15.2913 16.9879 15.6238 16.7659 15.6354 16.7391C15.6408 16.7264 15.6585 16.7159 15.6743 16.7159C15.7003 16.7159 16.1195 16.4537 16.1555 16.4149C16.1833 16.3849 16.2911 16.3215 16.3449 16.3035C16.374 16.2937 16.3978 16.2738 16.3978 16.2591C16.3978 16.2444 16.4125 16.2323 16.4305 16.2323C16.4689 16.2323 16.8021 16.0178 16.817 15.9837C16.8225 15.9708 16.8418 15.9603 16.8596 15.9603C16.8774 15.9603 16.9368 15.9264 16.9914 15.8848C17.0461 15.8433 17.099 15.8092 17.1092 15.8092C17.1281 15.8092 17.3101 15.6868 17.3371 15.656C17.3455 15.6464 17.3728 15.6295 17.3977 15.6183C17.4497 15.5951 17.5571 15.5294 17.5795 15.507C17.5878 15.4986 17.6424 15.4658 17.7007 15.4337C17.7591 15.4018 17.8136 15.3677 17.822 15.3583C17.8509 15.3251 18.0316 15.2049 18.0527 15.2049C18.0643 15.2049 18.1185 15.1708 18.173 15.1292C18.2277 15.0877 18.2806 15.0536 18.2908 15.0536C18.3079 15.0536 18.485 14.9363 18.5188 14.9026C18.5413 14.8801 18.6486 14.8145 18.7006 14.7913C18.7255 14.7802 18.7527 14.7631 18.7611 14.7537C18.7695 14.7441 18.824 14.7102 18.8824 14.6783C18.9407 14.6462 18.9953 14.6123 19.0036 14.6027C19.0325 14.5695 19.2132 14.4493 19.2343 14.4493C19.246 14.4493 19.3001 14.4154 19.3547 14.3737C19.4094 14.3321 19.4623 14.2982 19.4725 14.2982C19.4914 14.2982 19.6735 14.1756 19.7004 14.1448C19.7088 14.1352 19.7633 14.1013 19.8217 14.0692C19.8799 14.0373 19.9344 14.0043 19.9428 13.996C19.9735 13.9655 20.0807 13.9031 20.1322 13.8857C20.1613 13.8761 20.1853 13.8581 20.1853 13.8462C20.1853 13.8342 20.2224 13.8074 20.2678 13.7867C20.3411 13.7535 20.3445 13.7459 20.2982 13.72C20.2694 13.7038 20.2458 13.671 20.2458 13.6469C20.2458 13.6228 20.2253 13.603 20.2004 13.603C20.1753 13.603 20.1544 13.5862 20.1535 13.5653C20.1527 13.5444 20.1171 13.5004 20.0742 13.467C20.0315 13.4338 19.9195 13.3363 19.8257 13.2502C19.7317 13.1642 19.5684 13.0146 19.4626 12.9178C19.357 12.821 19.2523 12.7314 19.2301 12.7189C19.2078 12.7062 19.1363 12.6451 19.0711 12.5829C18.7024 12.2316 18.5479 12.1174 18.5902 12.2278ZM10.0676 17.6336C10.0656 17.7117 9.91313 17.8925 9.84805 17.8939C9.83659 17.8943 9.80878 17.9115 9.78605 17.9322C9.76333 17.9531 9.71807 17.9862 9.68552 18.006C9.6528 18.0258 9.517 18.1112 9.38375 18.1959C9.2505 18.2805 9.11415 18.3663 9.0807 18.3866C9.04743 18.4067 9.01344 18.4316 9.00508 18.4417C8.99672 18.4519 8.94218 18.4847 8.88382 18.5144C8.75657 18.5795 8.59986 18.6865 8.58587 18.7181C8.58041 18.7304 8.56532 18.7407 8.55242 18.7407C8.53278 18.7407 8.1772 18.9612 8.07921 19.0341C8.00195 19.0918 7.92542 19.1366 7.87633 19.1531C7.84725 19.1629 7.82343 19.1808 7.82343 19.193C7.82343 19.2051 7.76889 19.2396 7.70218 19.2695C7.63546 19.2996 7.58092 19.3339 7.58092 19.346C7.58092 19.3582 7.54002 19.3848 7.49002 19.4055C7.44003 19.4262 7.39913 19.455 7.39913 19.4697C7.39913 19.4842 7.38749 19.4961 7.37331 19.4961C7.35168 19.4961 7.00155 19.7121 6.89757 19.7897C6.82031 19.8474 6.74377 19.8922 6.69469 19.9087C6.6656 19.9183 6.64179 19.9368 6.64179 19.9495C6.64179 19.962 6.59961 19.9897 6.54816 20.0111C6.4969 20.0323 6.43854 20.0646 6.41873 20.0827C6.21658 20.2677 6.08859 20.2862 6.00206 20.1433C5.97515 20.0991 5.94552 20.0753 5.93589 20.0905C5.92643 20.1058 5.97915 20.1839 6.05296 20.2641C6.12677 20.3444 6.18731 20.422 6.18731 20.4367C6.18731 20.4514 6.19785 20.4633 6.21058 20.4633C6.22348 20.4633 6.25948 20.5105 6.29074 20.5682C6.32183 20.6258 6.3591 20.6659 6.37328 20.657C6.38764 20.6483 6.39964 20.6588 6.39982 20.6806C6.40018 20.7023 6.43418 20.7522 6.47563 20.7914C6.5169 20.8305 6.55125 20.878 6.55162 20.8971C6.55216 20.9161 6.60325 20.9877 6.66524 21.0563C6.72723 21.1248 6.79849 21.2115 6.82358 21.2489C6.84848 21.2864 6.88702 21.3355 6.90902 21.3586C6.93102 21.3814 6.94083 21.4001 6.93065 21.4001C6.92065 21.4001 6.95065 21.4376 6.99755 21.4833C7.04445 21.529 7.08918 21.58 7.09699 21.5966C7.10499 21.6131 7.12117 21.6235 7.13317 21.6195C7.14517 21.6155 7.17116 21.6425 7.19098 21.6793C7.21079 21.7163 7.24188 21.7633 7.26006 21.7838C7.35532 21.8913 7.38404 21.9294 7.38404 21.9484C7.38404 21.9598 7.3964 21.9807 7.41167 21.9945C7.42749 22.009 7.43076 22.0048 7.41931 21.985C7.4084 21.966 7.41895 21.943 7.44294 21.9339C7.46676 21.9248 7.49039 21.9292 7.49566 21.9435C7.50093 21.958 7.65527 21.8692 7.83852 21.7462C8.02177 21.6233 8.18774 21.5223 8.20719 21.5218C8.22665 21.5214 8.24701 21.5105 8.25264 21.4978C8.2581 21.4849 8.33772 21.4258 8.42934 21.3664C8.88419 21.0712 8.96181 21.0215 8.98981 21.0073C9.00653 20.9988 9.09797 20.941 9.19287 20.8788C9.28795 20.8164 9.37884 20.7654 9.39484 20.7654C9.41102 20.7654 9.42865 20.7551 9.43429 20.7422C9.44392 20.7201 9.62517 20.597 9.9064 20.4218C9.99293 20.368 10.036 20.3196 10.0375 20.274C10.0389 20.2369 10.0469 20.2235 10.0553 20.2443C10.0637 20.2653 10.0829 20.2748 10.098 20.2655C10.1324 20.2443 10.1293 17.6909 10.0947 17.6074C10.0731 17.5552 10.0695 17.5587 10.0676 17.6336ZM5.61157 19.7172C5.61157 19.7224 5.65593 19.7667 5.7101 19.8155L5.80845 19.9041L5.71956 19.806C5.63666 19.7145 5.61157 19.6938 5.61157 19.7172Z" fill="#FC5234"/>
<path d="M32.5919 17.915H30.5621V12.1193H32.5919V17.915ZM37.5578 10.3704H25.5961V8.34062H37.5578V10.3704ZM51.4471 15.5533C51.4471 15.881 51.3854 16.1874 51.262 16.4725C51.1343 16.7576 50.9641 17.0065 50.7513 17.2193C50.5343 17.4363 50.2811 17.6065 49.9918 17.7299C49.7024 17.8533 49.396 17.915 49.0726 17.915H41.8471C41.5195 17.915 41.2131 17.8533 40.928 17.7299C40.6386 17.6065 40.3876 17.4363 40.1748 17.2193C39.9578 17.0065 39.7876 16.7576 39.6642 16.4725C39.5365 16.1874 39.4727 15.881 39.4727 15.5533V8.34062H41.5024V15.5533C41.5024 15.6427 41.5365 15.7214 41.6046 15.7895C41.6684 15.8619 41.7493 15.898 41.8471 15.898H49.0726C49.1705 15.898 49.2535 15.8619 49.3216 15.7895C49.3854 15.7214 49.4173 15.6427 49.4173 15.5533V8.34062H51.4471V15.5533ZM65.3364 15.3363C65.3364 15.6895 65.2683 16.0214 65.1321 16.3321C64.9959 16.647 64.8108 16.9214 64.5768 17.1555C64.3385 17.3895 64.0619 17.5746 63.747 17.7108C63.4321 17.847 63.0981 17.915 62.7449 17.915H53.362V12.1193H62.7449C62.8215 12.1193 62.8938 12.1044 62.9619 12.0746C63.03 12.0449 63.0896 12.0044 63.1406 11.9534C63.1917 11.9023 63.2321 11.8427 63.2619 11.7746C63.2917 11.7066 63.3066 11.6342 63.3066 11.5576V10.9321C63.3066 10.8555 63.2917 10.7832 63.2619 10.7151C63.2321 10.647 63.1917 10.5874 63.1406 10.5364C63.0896 10.4853 63.03 10.4449 62.9619 10.4151C62.8938 10.3853 62.8215 10.3704 62.7449 10.3704H53.362V8.34062H62.7449C63.0981 8.34062 63.4321 8.40871 63.747 8.54488C64.0619 8.68105 64.3385 8.86615 64.5768 9.10019C64.8108 9.33849 64.9959 9.61508 65.1321 9.92998C65.2683 10.2449 65.3364 10.5789 65.3364 10.9321V11.5576C65.3364 11.8598 65.2895 12.1427 65.1959 12.4066C65.0981 12.6704 64.9661 12.9108 64.8002 13.1278C64.9661 13.3449 65.0981 13.5874 65.1959 13.8555C65.2895 14.1236 65.3364 14.4044 65.3364 14.698V15.3363ZM63.3066 14.698C63.3066 14.6257 63.2917 14.5555 63.2619 14.4874C63.2321 14.4236 63.1917 14.3661 63.1406 14.3151C63.0896 14.264 63.03 14.2236 62.9619 14.1938C62.8938 14.164 62.8215 14.1491 62.7449 14.1491H55.3917V15.898H62.7449C62.8215 15.898 62.8938 15.8831 62.9619 15.8533C63.03 15.8236 63.0896 15.7831 63.1406 15.7321C63.1917 15.681 63.2321 15.6214 63.2619 15.5533C63.2917 15.4853 63.3066 15.4129 63.3066 15.3363V14.698ZM78.7661 17.915H69.7661C69.4214 17.915 69.098 17.8491 68.7959 17.7172C68.4895 17.5853 68.2214 17.4065 67.9917 17.181C67.7619 16.9555 67.581 16.6895 67.4491 16.3831C67.3172 16.081 67.2512 15.7576 67.2512 15.4129V8.34062H69.281V15.4129C69.281 15.5406 69.3278 15.6533 69.4214 15.7512C69.5151 15.8491 69.6299 15.898 69.7661 15.898H78.7661V17.915ZM82.7107 17.915H80.681V8.34062H82.7107V17.915ZM94.5702 12.1193V10.881C94.5702 10.7406 94.5213 10.6193 94.4234 10.5172C94.3213 10.4193 94.2 10.3704 94.0596 10.3704H87.1533C87.0171 10.3704 86.9001 10.4193 86.8022 10.5172C86.7043 10.6193 86.6554 10.7406 86.6554 10.881V12.1193H94.5702ZM96.6 17.915H94.5702V14.1491H86.6554V17.915H84.6256V10.881C84.6256 10.5321 84.6916 10.2023 84.8235 9.89168C84.9554 9.5853 85.1362 9.31721 85.366 9.08743C85.5958 8.85764 85.8639 8.67466 86.1703 8.53849C86.4767 8.40658 86.8043 8.34062 87.1533 8.34062H94.0596C94.4085 8.34062 94.7383 8.40658 95.049 8.53849C95.3553 8.67466 95.6234 8.85764 95.8532 9.08743C96.083 9.31721 96.266 9.5853 96.4021 9.89168C96.5341 10.2023 96.6 10.5321 96.6 10.881V17.915ZM110.489 17.915H108.46V10.9321C108.46 10.8555 108.445 10.7832 108.415 10.7151C108.385 10.647 108.345 10.5874 108.294 10.5364C108.243 10.4853 108.183 10.4449 108.115 10.4151C108.047 10.3853 107.974 10.3704 107.898 10.3704H98.5149V8.34062H107.898C108.251 8.34062 108.585 8.40871 108.9 8.54488C109.215 8.68105 109.491 8.86615 109.73 9.10019C109.964 9.33849 110.149 9.61508 110.285 9.92998C110.421 10.2449 110.489 10.5789 110.489 10.9321V17.915ZM100.545 17.915H98.5149V12.1193H100.545V17.915Z" fill="#FEFEFE"/>
</svg>
