<svg width="264" height="32" viewBox="0 0 264 32" fill="none" xmlns="http://www.w3.org/2000/svg">
<path fill-rule="evenodd" clip-rule="evenodd" d="M61.8459 16.1316C61.8459 12.4498 59.9912 9.54468 56.4463 9.54468C52.8865 9.54468 50.7327 12.4498 50.7327 16.1029C50.7327 20.4319 53.2754 22.6179 56.925 22.6179C58.7049 22.6179 60.051 22.2296 61.0681 21.6831V18.8067C60.051 19.2957 58.8844 19.5977 57.4036 19.5977C55.9527 19.5977 54.6664 19.1087 54.5019 17.4116H61.816C61.816 17.2247 61.8459 16.4768 61.8459 16.1316ZM54.457 14.7654C54.457 13.1402 55.4891 12.4642 56.4314 12.4642C57.3438 12.4642 58.316 13.1402 58.316 14.7654H54.457Z" fill="#635BFF"/>
<path fill-rule="evenodd" clip-rule="evenodd" d="M44.9591 9.54468C43.4933 9.54468 42.551 10.2063 42.0275 10.6665L41.8331 9.77479H38.5425V26.5442L42.2818 25.782L42.2968 21.7119C42.8352 22.0858 43.6279 22.6179 44.9442 22.6179C47.6215 22.6179 50.0596 20.5469 50.0596 15.9878C50.0446 11.817 47.5767 9.54468 44.9591 9.54468ZM44.0617 19.4539C43.1792 19.4539 42.6557 19.1519 42.2968 18.7779L42.2818 13.4422C42.6707 13.0251 43.2091 12.7375 44.0617 12.7375C45.4228 12.7375 46.3651 14.2045 46.3651 16.0885C46.3651 18.0157 45.4378 19.4539 44.0617 19.4539Z" fill="#635BFF"/>
<path fill-rule="evenodd" clip-rule="evenodd" d="M33.3972 8.69618L37.1515 7.91955V5L33.3972 5.76225V8.69618Z" fill="#635BFF"/>
<path d="M37.1515 9.78918H33.3972V22.3735H37.1515V9.78918Z" fill="#635BFF"/>
<path fill-rule="evenodd" clip-rule="evenodd" d="M29.3736 10.8534L29.1343 9.78916H25.9036V22.3734H29.6429V13.8449C30.5254 12.7375 32.0211 12.9388 32.4848 13.097V9.78916C32.0061 9.61658 30.2561 9.30017 29.3736 10.8534Z" fill="#635BFF"/>
<path fill-rule="evenodd" clip-rule="evenodd" d="M21.895 6.66833L18.2454 7.4162L18.2305 18.9362C18.2305 21.0647 19.8907 22.6324 22.1044 22.6324C23.3309 22.6324 24.2283 22.4167 24.7219 22.1578V19.2382C24.2433 19.4252 21.88 20.0868 21.88 17.9582V12.8526H24.7219V9.78923H21.88L21.895 6.66833Z" fill="#635BFF"/>
<path fill-rule="evenodd" clip-rule="evenodd" d="M11.7839 13.4422C11.7839 12.8813 12.2626 12.6656 13.0553 12.6656C14.1921 12.6656 15.628 12.9964 16.7647 13.586V10.2063C15.5233 9.73164 14.2968 9.54468 13.0553 9.54468C10.019 9.54468 7.99976 11.0692 7.99976 13.6148C7.99976 17.5842 13.6835 16.9514 13.6835 18.6629C13.6835 19.3245 13.0852 19.5402 12.2476 19.5402C11.0062 19.5402 9.4207 19.0512 8.16429 18.3896V21.8125C9.55531 22.3878 10.9613 22.6323 12.2476 22.6323C15.3587 22.6323 17.4976 21.151 17.4976 18.5766C17.4827 14.2907 11.7839 15.053 11.7839 13.4422Z" fill="#635BFF"/>
<circle cx="77" cy="16" r="3" fill="#414141"/>
<path d="M85.168 22V10.8H89.616C90.2987 10.8 90.9067 10.9387 91.44 11.216C91.984 11.4827 92.4053 11.8667 92.704 12.368C93.0133 12.8587 93.168 13.4507 93.168 14.144V14.352C93.168 15.0453 93.008 15.6427 92.688 16.144C92.3787 16.6453 91.9573 17.0293 91.424 17.296C90.8907 17.5627 90.288 17.696 89.616 17.696H86.896V22H85.168ZM86.896 16.128H89.44C90.048 16.128 90.5333 15.968 90.896 15.648C91.2587 15.328 91.44 14.8907 91.44 14.336V14.176C91.44 13.6107 91.2587 13.168 90.896 12.848C90.5333 12.528 90.048 12.368 89.44 12.368H86.896V16.128ZM98.3339 22.224C97.5445 22.224 96.8405 22.064 96.2219 21.744C95.6139 21.4133 95.1339 20.944 94.7819 20.336C94.4299 19.728 94.2539 19.008 94.2539 18.176V17.936C94.2539 17.104 94.4299 16.3893 94.7819 15.792C95.1339 15.184 95.6139 14.7147 96.2219 14.384C96.8405 14.0533 97.5445 13.888 98.3339 13.888C99.1232 13.888 99.8272 14.0533 100.446 14.384C101.065 14.7147 101.55 15.184 101.902 15.792C102.254 16.3893 102.43 17.104 102.43 17.936V18.176C102.43 19.008 102.254 19.728 101.902 20.336C101.55 20.944 101.065 21.4133 100.446 21.744C99.8272 22.064 99.1232 22.224 98.3339 22.224ZM98.3339 20.752C99.0592 20.752 99.6459 20.5227 100.094 20.064C100.553 19.5947 100.782 18.9493 100.782 18.128V17.984C100.782 17.1627 100.558 16.5227 100.11 16.064C99.6619 15.5947 99.0699 15.36 98.3339 15.36C97.6192 15.36 97.0325 15.5947 96.5739 16.064C96.1259 16.5227 95.9019 17.1627 95.9019 17.984V18.128C95.9019 18.9493 96.1259 19.5947 96.5739 20.064C97.0325 20.5227 97.6192 20.752 98.3339 20.752ZM105.252 22L103.908 14.112H105.556L106.548 20.896H106.804L108.18 14.112H110.852L112.212 20.896H112.468L113.46 14.112H115.108L113.764 22H110.996L109.636 15.232H109.38L108.02 22H105.252ZM120.582 22.224C119.782 22.224 119.083 22.0587 118.486 21.728C117.889 21.3867 117.419 20.912 117.078 20.304C116.747 19.6853 116.582 18.9707 116.582 18.16V17.968C116.582 17.1467 116.747 16.432 117.078 15.824C117.409 15.2053 117.867 14.7307 118.454 14.4C119.051 14.0587 119.739 13.888 120.518 13.888C121.275 13.888 121.937 14.0587 122.502 14.4C123.078 14.7307 123.526 15.1947 123.846 15.792C124.166 16.3893 124.326 17.088 124.326 17.888V18.512H118.262C118.283 19.2053 118.513 19.76 118.95 20.176C119.398 20.5813 119.953 20.784 120.614 20.784C121.233 20.784 121.697 20.6453 122.006 20.368C122.326 20.0907 122.571 19.7707 122.742 19.408L124.102 20.112C123.953 20.4107 123.734 20.7253 123.446 21.056C123.169 21.3867 122.801 21.664 122.342 21.888C121.883 22.112 121.297 22.224 120.582 22.224ZM118.278 17.248H122.646C122.603 16.6507 122.39 16.1867 122.006 15.856C121.622 15.5147 121.121 15.344 120.502 15.344C119.883 15.344 119.377 15.5147 118.982 15.856C118.598 16.1867 118.363 16.6507 118.278 17.248ZM126.31 22V14.112H127.926V15.04H128.182C128.31 14.7093 128.512 14.4693 128.79 14.32C129.078 14.16 129.43 14.08 129.846 14.08H130.79V15.568H129.782C129.248 15.568 128.811 15.7173 128.47 16.016C128.128 16.304 127.958 16.752 127.958 17.36V22H126.31ZM135.832 22.224C135.032 22.224 134.333 22.0587 133.736 21.728C133.139 21.3867 132.669 20.912 132.328 20.304C131.997 19.6853 131.832 18.9707 131.832 18.16V17.968C131.832 17.1467 131.997 16.432 132.328 15.824C132.659 15.2053 133.117 14.7307 133.704 14.4C134.301 14.0587 134.989 13.888 135.768 13.888C136.525 13.888 137.187 14.0587 137.752 14.4C138.328 14.7307 138.776 15.1947 139.096 15.792C139.416 16.3893 139.576 17.088 139.576 17.888V18.512H133.512C133.533 19.2053 133.763 19.76 134.2 20.176C134.648 20.5813 135.203 20.784 135.864 20.784C136.483 20.784 136.947 20.6453 137.256 20.368C137.576 20.0907 137.821 19.7707 137.992 19.408L139.352 20.112C139.203 20.4107 138.984 20.7253 138.696 21.056C138.419 21.3867 138.051 21.664 137.592 21.888C137.133 22.112 136.547 22.224 135.832 22.224ZM133.528 17.248H137.896C137.853 16.6507 137.64 16.1867 137.256 15.856C136.872 15.5147 136.371 15.344 135.752 15.344C135.133 15.344 134.627 15.5147 134.232 15.856C133.848 16.1867 133.613 16.6507 133.528 17.248ZM144.824 22.224C144.173 22.224 143.57 22.064 143.016 21.744C142.461 21.424 142.013 20.9653 141.672 20.368C141.341 19.76 141.176 19.0293 141.176 18.176V17.936C141.176 17.0933 141.341 16.368 141.672 15.76C142.002 15.152 142.445 14.688 143 14.368C143.554 14.048 144.162 13.888 144.824 13.888C145.336 13.888 145.762 13.952 146.104 14.08C146.456 14.208 146.744 14.3733 146.968 14.576C147.192 14.768 147.362 14.9707 147.48 15.184H147.736V10.8H149.384V22H147.768V20.88H147.512C147.309 21.2213 147 21.5307 146.584 21.808C146.178 22.0853 145.592 22.224 144.824 22.224ZM145.288 20.784C146.002 20.784 146.589 20.5547 147.048 20.096C147.517 19.6373 147.752 18.9813 147.752 18.128V17.984C147.752 17.1413 147.522 16.4907 147.064 16.032C146.605 15.5733 146.013 15.344 145.288 15.344C144.584 15.344 143.997 15.5733 143.528 16.032C143.069 16.4907 142.84 17.1413 142.84 17.984V18.128C142.84 18.9813 143.069 19.6373 143.528 20.096C143.997 20.5547 144.584 20.784 145.288 20.784ZM160.448 22.224C159.68 22.224 159.088 22.0853 158.672 21.808C158.267 21.5307 157.963 21.2213 157.76 20.88H157.504V22H155.888V10.8H157.536V15.184H157.792C157.92 14.9707 158.091 14.768 158.304 14.576C158.517 14.3733 158.8 14.208 159.152 14.08C159.504 13.952 159.936 13.888 160.448 13.888C161.109 13.888 161.717 14.048 162.272 14.368C162.827 14.688 163.269 15.152 163.6 15.76C163.931 16.368 164.096 17.0933 164.096 17.936V18.176C164.096 19.0293 163.925 19.76 163.584 20.368C163.253 20.9653 162.811 21.424 162.256 21.744C161.712 22.064 161.109 22.224 160.448 22.224ZM159.968 20.784C160.683 20.784 161.269 20.5547 161.728 20.096C162.197 19.6373 162.432 18.9813 162.432 18.128V17.984C162.432 17.1413 162.203 16.4907 161.744 16.032C161.285 15.5733 160.693 15.344 159.968 15.344C159.264 15.344 158.677 15.5733 158.208 16.032C157.749 16.4907 157.52 17.1413 157.52 17.984V18.128C157.52 18.9813 157.749 19.6373 158.208 20.096C158.677 20.5547 159.264 20.784 159.968 20.784ZM167.05 25.2V23.76H171.45C171.749 23.76 171.898 23.6 171.898 23.28V20.848H171.642C171.546 21.0613 171.397 21.2693 171.194 21.472C171.002 21.664 170.741 21.824 170.41 21.952C170.079 22.08 169.663 22.144 169.162 22.144C168.565 22.144 168.031 22.0107 167.562 21.744C167.093 21.4773 166.725 21.0987 166.458 20.608C166.191 20.1173 166.058 19.536 166.058 18.864V14.112H167.706V18.736C167.706 19.4187 167.877 19.9253 168.218 20.256C168.559 20.576 169.034 20.736 169.642 20.736C170.314 20.736 170.853 20.512 171.258 20.064C171.674 19.616 171.882 18.9653 171.882 18.112V14.112H173.53V23.616C173.53 24.096 173.386 24.48 173.098 24.768C172.821 25.056 172.437 25.2 171.946 25.2H167.05ZM183.804 22.224C182.961 22.224 182.215 22.0747 181.564 21.776C180.913 21.4773 180.401 21.04 180.028 20.464C179.665 19.8773 179.484 19.168 179.484 18.336V17.936H181.196V18.336C181.196 19.1253 181.431 19.7173 181.9 20.112C182.38 20.5067 183.015 20.704 183.804 20.704C184.604 20.704 185.207 20.5387 185.612 20.208C186.017 19.8667 186.22 19.4293 186.22 18.896C186.22 18.544 186.124 18.256 185.932 18.032C185.74 17.808 185.468 17.632 185.116 17.504C184.764 17.3653 184.343 17.2373 183.852 17.12L183.26 16.976C182.545 16.8053 181.921 16.5973 181.388 16.352C180.865 16.096 180.46 15.76 180.172 15.344C179.884 14.928 179.74 14.3947 179.74 13.744C179.74 13.0827 179.9 12.5173 180.22 12.048C180.551 11.5787 181.004 11.216 181.58 10.96C182.156 10.704 182.833 10.576 183.612 10.576C184.391 10.576 185.084 10.7093 185.692 10.976C186.311 11.2427 186.796 11.6373 187.148 12.16C187.5 12.6827 187.676 13.3387 187.676 14.128V14.704H185.964V14.128C185.964 13.648 185.863 13.2587 185.66 12.96C185.468 12.6613 185.196 12.4427 184.844 12.304C184.492 12.1653 184.081 12.096 183.612 12.096C182.929 12.096 182.396 12.24 182.012 12.528C181.639 12.8053 181.452 13.1947 181.452 13.696C181.452 14.0373 181.532 14.32 181.692 14.544C181.863 14.7573 182.108 14.9333 182.428 15.072C182.748 15.2107 183.148 15.3333 183.628 15.44L184.22 15.584C184.945 15.744 185.585 15.952 186.14 16.208C186.695 16.4533 187.132 16.7893 187.452 17.216C187.772 17.6427 187.932 18.192 187.932 18.864C187.932 19.536 187.761 20.1227 187.42 20.624C187.089 21.1253 186.615 21.52 185.996 21.808C185.377 22.0853 184.647 22.224 183.804 22.224ZM192.754 22C192.274 22 191.89 21.856 191.602 21.568C191.325 21.28 191.186 20.896 191.186 20.416V15.504H189.01V14.112H191.186V11.504H192.834V14.112H195.186V15.504H192.834V20.128C192.834 20.448 192.983 20.608 193.282 20.608H194.93V22H192.754ZM197.122 22V14.112H198.738V15.04H198.994C199.122 14.7093 199.325 14.4693 199.602 14.32C199.89 14.16 200.242 14.08 200.658 14.08H201.602V15.568H200.594C200.061 15.568 199.624 15.7173 199.282 16.016C198.941 16.304 198.77 16.752 198.77 17.36V22H197.122ZM203.31 22V14.112H204.958V22H203.31ZM204.142 13.04C203.822 13.04 203.55 12.9387 203.326 12.736C203.112 12.5227 203.006 12.2507 203.006 11.92C203.006 11.5893 203.112 11.3227 203.326 11.12C203.55 10.9067 203.822 10.8 204.142 10.8C204.472 10.8 204.744 10.9067 204.958 11.12C205.171 11.3227 205.278 11.5893 205.278 11.92C205.278 12.2507 205.171 12.5227 204.958 12.736C204.744 12.9387 204.472 13.04 204.142 13.04ZM207.404 25.2V14.112H209.02V15.248H209.276C209.478 14.896 209.782 14.5813 210.188 14.304C210.604 14.0267 211.196 13.888 211.964 13.888C212.625 13.888 213.228 14.048 213.772 14.368C214.326 14.688 214.769 15.152 215.1 15.76C215.441 16.3573 215.612 17.0827 215.612 17.936V18.176C215.612 19.0293 215.446 19.76 215.116 20.368C214.785 20.9653 214.342 21.424 213.788 21.744C213.233 22.064 212.625 22.224 211.964 22.224C211.452 22.224 211.02 22.16 210.668 22.032C210.316 21.904 210.033 21.744 209.82 21.552C209.606 21.3493 209.436 21.1413 209.308 20.928H209.052V25.2H207.404ZM211.484 20.784C212.209 20.784 212.801 20.5547 213.26 20.096C213.718 19.6373 213.948 18.9813 213.948 18.128V17.984C213.948 17.1413 213.713 16.4907 213.244 16.032C212.785 15.5733 212.198 15.344 211.484 15.344C210.78 15.344 210.193 15.5733 209.724 16.032C209.265 16.4907 209.036 17.1413 209.036 17.984V18.128C209.036 18.9813 209.265 19.6373 209.724 20.096C210.193 20.5547 210.78 20.784 211.484 20.784ZM221.27 22.224C220.47 22.224 219.771 22.0587 219.174 21.728C218.576 21.3867 218.107 20.912 217.766 20.304C217.435 19.6853 217.27 18.9707 217.27 18.16V17.968C217.27 17.1467 217.435 16.432 217.766 15.824C218.096 15.2053 218.555 14.7307 219.142 14.4C219.739 14.0587 220.427 13.888 221.206 13.888C221.963 13.888 222.624 14.0587 223.19 14.4C223.766 14.7307 224.214 15.1947 224.534 15.792C224.854 16.3893 225.014 17.088 225.014 17.888V18.512H218.95C218.971 19.2053 219.2 19.76 219.638 20.176C220.086 20.5813 220.64 20.784 221.302 20.784C221.92 20.784 222.384 20.6453 222.694 20.368C223.014 20.0907 223.259 19.7707 223.43 19.408L224.79 20.112C224.64 20.4107 224.422 20.7253 224.134 21.056C223.856 21.3867 223.488 21.664 223.03 21.888C222.571 22.112 221.984 22.224 221.27 22.224ZM218.966 17.248H223.334C223.291 16.6507 223.078 16.1867 222.694 15.856C222.31 15.5147 221.808 15.344 221.19 15.344C220.571 15.344 220.064 15.5147 219.67 15.856C219.286 16.1867 219.051 16.6507 218.966 17.248ZM227.88 22.224C227.507 22.224 227.192 22.1013 226.936 21.856C226.691 21.6107 226.568 21.296 226.568 20.912C226.568 20.528 226.691 20.2187 226.936 19.984C227.192 19.7387 227.507 19.616 227.88 19.616C228.253 19.616 228.563 19.7387 228.808 19.984C229.064 20.2293 229.192 20.5387 229.192 20.912C229.192 21.296 229.064 21.6107 228.808 21.856C228.563 22.1013 228.253 22.224 227.88 22.224ZM234.864 22.224C234.107 22.224 233.419 22.064 232.8 21.744C232.192 21.424 231.707 20.96 231.344 20.352C230.992 19.744 230.816 19.0133 230.816 18.16V17.952C230.816 17.0987 230.992 16.3733 231.344 15.776C231.707 15.168 232.192 14.704 232.8 14.384C233.419 14.0533 234.107 13.888 234.864 13.888C235.622 13.888 236.267 14.0267 236.8 14.304C237.334 14.5813 237.76 14.9493 238.08 15.408C238.411 15.8667 238.624 16.3733 238.72 16.928L237.12 17.264C237.067 16.912 236.955 16.592 236.784 16.304C236.614 16.016 236.374 15.7867 236.064 15.616C235.755 15.4453 235.366 15.36 234.896 15.36C234.438 15.36 234.022 15.4667 233.648 15.68C233.286 15.8827 232.998 16.1813 232.784 16.576C232.571 16.96 232.464 17.4293 232.464 17.984V18.128C232.464 18.6827 232.571 19.1573 232.784 19.552C232.998 19.9467 233.286 20.2453 233.648 20.448C234.022 20.6507 234.438 20.752 234.896 20.752C235.59 20.752 236.118 20.576 236.48 20.224C236.843 19.8613 237.072 19.4027 237.168 18.848L238.768 19.216C238.64 19.76 238.411 20.2613 238.08 20.72C237.76 21.1787 237.334 21.5467 236.8 21.824C236.267 22.0907 235.622 22.224 234.864 22.224ZM244.365 22.224C243.576 22.224 242.872 22.064 242.253 21.744C241.645 21.4133 241.165 20.944 240.813 20.336C240.461 19.728 240.285 19.008 240.285 18.176V17.936C240.285 17.104 240.461 16.3893 240.813 15.792C241.165 15.184 241.645 14.7147 242.253 14.384C242.872 14.0533 243.576 13.888 244.365 13.888C245.154 13.888 245.858 14.0533 246.477 14.384C247.096 14.7147 247.581 15.184 247.933 15.792C248.285 16.3893 248.461 17.104 248.461 17.936V18.176C248.461 19.008 248.285 19.728 247.933 20.336C247.581 20.944 247.096 21.4133 246.477 21.744C245.858 22.064 245.154 22.224 244.365 22.224ZM244.365 20.752C245.09 20.752 245.677 20.5227 246.125 20.064C246.584 19.5947 246.813 18.9493 246.813 18.128V17.984C246.813 17.1627 246.589 16.5227 246.141 16.064C245.693 15.5947 245.101 15.36 244.365 15.36C243.65 15.36 243.064 15.5947 242.605 16.064C242.157 16.5227 241.933 17.1627 241.933 17.984V18.128C241.933 18.9493 242.157 19.5947 242.605 20.064C243.064 20.5227 243.65 20.752 244.365 20.752ZM250.513 22V14.112H252.129V15.04H252.385C252.534 14.7627 252.774 14.5173 253.105 14.304C253.436 14.0907 253.884 13.984 254.449 13.984C255.036 13.984 255.505 14.1067 255.857 14.352C256.22 14.5867 256.492 14.8907 256.673 15.264H256.929C257.11 14.9013 257.372 14.5973 257.713 14.352C258.065 14.1067 258.561 13.984 259.201 13.984C259.713 13.984 260.166 14.0907 260.561 14.304C260.956 14.5067 261.27 14.816 261.505 15.232C261.74 15.6373 261.857 16.144 261.857 16.752V22H260.209V16.88C260.209 16.4 260.076 16.032 259.809 15.776C259.553 15.5093 259.185 15.376 258.705 15.376C258.193 15.376 257.782 15.5413 257.473 15.872C257.164 16.2027 257.009 16.6773 257.009 17.296V22H255.361V16.88C255.361 16.4 255.228 16.032 254.961 15.776C254.705 15.5093 254.337 15.376 253.857 15.376C253.345 15.376 252.934 15.5413 252.625 15.872C252.316 16.2027 252.161 16.6773 252.161 17.296V22H250.513Z" fill="#CFCFCF"/>
</svg>
